<svg width="287" height="121" viewBox="0 0 287 121" fill="none" xmlns="http://www.w3.org/2000/svg">
<mask id="path-1-outside-1_1_57" maskUnits="userSpaceOnUse" x="0" y="0" width="287" height="121" fill="black">
<rect fill="white" width="287" height="121"/>
<path d="M76.8633 118.881C74.3778 118.881 72.2652 118.022 70.5253 116.303C68.7855 114.583 67.9155 112.496 67.9155 110.04V80.5698C67.9155 78.114 68.7855 76.0265 70.5253 74.3074C72.2652 72.5883 74.3778 71.7287 76.8633 71.7287H85.8111L91.7763 65.8347H103.707L109.672 71.7287H118.62C121.105 71.7287 123.218 72.5883 124.958 74.3074C126.698 76.0265 127.568 78.114 127.568 80.5698V110.04C127.568 112.496 126.698 114.583 124.958 116.303C123.218 118.022 121.105 118.881 118.62 118.881H76.8633ZM97.7415 107.093C101.022 107.093 103.831 105.939 106.167 103.63C108.504 101.322 109.672 98.5467 109.672 95.305C109.672 92.0633 108.504 89.2881 106.167 86.9796C103.831 84.6711 101.022 83.5169 97.7415 83.5169C94.4607 83.5169 91.6521 84.6711 89.3157 86.9796C86.9793 89.2881 85.8111 92.0633 85.8111 95.305C85.8111 98.5467 86.9793 101.322 89.3157 103.63C91.6521 105.939 94.4607 107.093 97.7415 107.093ZM45.546 118.881L43.1599 100.02C41.8675 99.5291 40.6496 98.9397 39.5062 98.252C38.3629 97.5644 37.2444 96.8276 36.1508 96.0418L18.4043 103.409L2 75.4125L17.3604 63.9191C17.261 63.2315 17.2113 62.5684 17.2113 61.9299V57.9514C17.2113 57.3129 17.261 56.6498 17.3604 55.9621L2 44.4687L18.4043 16.4719L36.1508 23.8395C37.2444 23.0536 38.3878 22.3169 39.5808 21.6292C40.7738 20.9416 41.9669 20.3522 43.1599 19.861L45.546 1H78.3546L80.7407 19.861C82.0332 20.3522 83.2511 20.9416 84.3944 21.6292C85.5377 22.3169 86.6562 23.0536 87.7498 23.8395L105.496 16.4719L121.901 44.4687L109.225 54.0466H94.1624C94.063 53.5554 93.9636 53.0397 93.8642 52.4994C93.7648 51.9591 93.6156 51.4433 93.4168 50.9522L106.242 41.3743L100.426 31.3544L85.662 37.5432C83.4748 35.2838 81.0638 33.3928 78.4292 31.8702C75.7946 30.3475 72.9362 29.1933 69.8542 28.4074L67.9155 12.7881H56.1342L54.0464 28.4074C50.9644 29.1933 48.1061 30.3475 45.4714 31.8702C42.8368 33.3928 40.4259 35.2347 38.2386 37.3958L23.4747 31.3544L17.6587 41.3743L30.4839 50.8048C29.9868 52.2783 29.6388 53.7519 29.4399 55.2254C29.2411 56.6989 29.1417 58.2706 29.1417 59.9406C29.1417 61.5124 29.2411 63.035 29.4399 64.5085C29.6388 65.982 29.9868 67.4556 30.4839 68.9291L17.6587 78.5069L23.4747 88.5268L38.2386 82.3381C40.6247 84.7939 43.3091 86.8568 46.2917 88.5268C49.2743 90.1968 52.5054 91.2774 55.9851 91.7686V118.881H45.546Z"/>
<path d="M78.3234 82.0743L63.4782 67.4061L69.1722 61.7799L84.0174 76.4481L78.3234 82.0743ZM40.9053 82.0743L35.2112 76.4481L53.9203 57.9622L49.3108 53.4077L47.4128 55.2831L43.9557 51.8672V57.3594L42.0576 59.2348L33.8555 51.1304L35.7535 49.2551H41.312L37.9227 45.9062L47.5483 36.3953C48.4522 35.5023 49.4238 34.8548 50.4632 34.4529C51.5025 34.0511 52.5645 33.8501 53.6491 33.8501C54.7337 33.8501 55.7957 34.0511 56.8351 34.4529C57.8745 34.8548 58.8461 35.5023 59.7499 36.3953L53.5135 42.5573L56.9029 45.9062L55.0048 47.7815L59.6143 52.336L65.7151 46.308C65.5343 45.8169 65.3875 45.3034 65.2745 44.7675C65.1615 44.2317 65.105 43.6959 65.105 43.1601C65.105 40.5256 66.0201 38.3042 67.8504 36.4958C69.6806 34.6873 71.9289 33.7831 74.5951 33.7831C75.273 33.7831 75.917 33.8501 76.527 33.9841C77.1371 34.118 77.7585 34.319 78.3912 34.5869L71.6803 41.2177L76.5609 46.0401L83.2718 39.4093C83.5881 40.0344 83.8028 40.6484 83.9158 41.2512C84.0287 41.854 84.0852 42.4903 84.0852 43.1601C84.0852 45.7945 83.1701 48.016 81.3399 49.8244C79.5097 51.6328 77.2614 52.537 74.5951 52.537C74.0528 52.537 73.5105 52.4923 72.9682 52.403C72.426 52.3137 71.9063 52.1574 71.4092 51.9342L40.9053 82.0743Z"/>
<path d="M76.6008 119.122C74.0964 119.122 71.9677 118.253 70.2147 116.516C68.4617 114.778 67.5851 112.668 67.5851 110.186V80.4009C67.5851 77.9187 68.4617 75.8089 70.2147 74.0715C71.9677 72.334 74.0964 71.4653 76.6008 71.4653H85.6164L91.6268 65.5082H103.648L109.658 71.4653H118.674C121.178 71.4653 123.307 72.334 125.06 74.0715C126.813 75.8089 127.689 77.9187 127.689 80.4009V110.186C127.689 112.668 126.813 114.778 125.06 116.516C123.307 118.253 121.178 119.122 118.674 119.122H76.6008ZM97.6373 107.208C100.943 107.208 103.773 106.041 106.127 103.708C108.481 101.375 109.658 98.5699 109.658 95.2935C109.658 92.0172 108.481 89.2124 106.127 86.8792C103.773 84.546 100.943 83.3794 97.6373 83.3794C94.3315 83.3794 91.5016 84.546 89.1475 86.8792C86.7934 89.2124 85.6164 92.0172 85.6164 95.2935C85.6164 98.5699 86.7934 101.375 89.1475 103.708C91.5016 106.041 94.3315 107.208 97.6373 107.208Z"/>
<path d="M145.324 23.7559C146.109 23.7559 146.842 23.8203 147.521 23.9492C148.213 24.0781 148.84 24.248 149.402 24.459C149.965 24.6582 150.451 24.875 150.861 25.1094C151.271 25.332 151.605 25.5371 151.863 25.7246V24.459H157.664V34.0391H151.512C151.512 33.2539 151.412 32.5977 151.213 32.0703C151.025 31.543 150.768 31.1152 150.439 30.7871C150.123 30.459 149.748 30.2246 149.314 30.084C148.881 29.9434 148.412 29.873 147.908 29.873C147.217 29.873 146.625 30.0078 146.133 30.2773C145.641 30.5352 145.236 30.957 144.92 31.543C144.615 32.1289 144.381 32.9082 144.217 33.8809C144.064 34.8535 143.988 36.0371 143.988 37.4316C143.988 38.8496 144.07 40.0391 144.234 41C144.41 41.9492 144.668 42.7227 145.008 43.3203C145.359 43.9062 145.805 44.334 146.344 44.6035C146.883 44.8613 147.527 44.9902 148.277 44.9902C148.781 44.9902 149.268 44.8965 149.736 44.709C150.205 44.5098 150.615 44.2109 150.967 43.8125C151.33 43.4141 151.611 42.916 151.811 42.3184C152.021 41.7207 152.127 41 152.127 40.1562H158.244C158.244 41.6445 158.01 43.0508 157.541 44.375C157.072 45.6992 156.34 46.8594 155.344 47.8555C154.348 48.8516 153.082 49.6426 151.547 50.2285C150.012 50.8145 148.189 51.1074 146.08 51.1074C144.182 51.1074 142.383 50.8496 140.684 50.334C138.996 49.8184 137.52 49.0098 136.254 47.9082C135 46.8066 134.004 45.3945 133.266 43.6719C132.539 41.9375 132.176 39.8574 132.176 37.4316C132.176 35.0059 132.545 32.9316 133.283 31.209C134.033 29.4746 135.018 28.0566 136.236 26.9551C137.467 25.8535 138.867 25.0449 140.438 24.5293C142.008 24.0137 143.637 23.7559 145.324 23.7559Z"/>
<path d="M173.396 30.9805V41.9316C173.396 42.7168 173.59 43.2324 173.977 43.4785C174.363 43.7129 174.855 43.8301 175.453 43.8301H175.928V50.3516H161.127V43.8301H161.812C162.434 43.8301 162.891 43.6367 163.184 43.25C163.488 42.8516 163.641 42.4238 163.641 41.9668V39.4883C163.641 38.8086 163.424 38.3105 162.99 37.9941C162.568 37.666 162.076 37.502 161.514 37.502H161.127V30.9805H173.396ZM163.359 26.6562C163.359 25.6484 163.74 24.7871 164.502 24.0723C165.275 23.3574 166.371 23 167.789 23C169.23 23 170.338 23.3574 171.111 24.0723C171.896 24.7871 172.289 25.6484 172.289 26.6562C172.289 27.6875 171.896 28.5605 171.111 29.2754C170.338 29.9785 169.23 30.3301 167.789 30.3301C166.371 30.3301 165.275 29.9785 164.502 29.2754C163.74 28.5605 163.359 27.6875 163.359 26.6562Z"/>
<path d="M201.592 24.459V42.3887C201.592 42.8691 201.721 43.2324 201.979 43.4785C202.248 43.7129 202.623 43.8301 203.104 43.8301H204.105V50.3516H192.293V47.1523H192.012C191.824 47.6562 191.549 48.1367 191.186 48.5938C190.822 49.0508 190.377 49.4551 189.85 49.8066C189.322 50.1465 188.695 50.416 187.969 50.6152C187.254 50.8262 186.439 50.9316 185.525 50.9316C182.654 50.9316 180.48 50.0645 179.004 48.3301C177.527 46.584 176.789 44.0293 176.789 40.666C176.789 37.3027 177.58 34.8066 179.162 33.1777C180.744 31.5488 182.918 30.7344 185.684 30.7344C186.422 30.7344 187.084 30.793 187.67 30.9102C188.256 31.0273 188.789 31.1797 189.27 31.3672C189.75 31.543 190.207 31.748 190.641 31.9824C191.074 32.2051 191.508 32.4219 191.941 32.6328V32C191.941 31.3672 191.83 30.9219 191.607 30.6641C191.396 30.3945 190.98 30.2598 190.359 30.2598H189.428V24.459H201.592ZM186.791 40.8418C186.791 41.4746 186.826 42.0723 186.896 42.6348C186.967 43.1973 187.096 43.6895 187.283 44.1113C187.482 44.5332 187.74 44.8613 188.057 45.0957C188.385 45.3301 188.812 45.4473 189.34 45.4473C189.867 45.4473 190.301 45.3359 190.641 45.1133C190.98 44.8906 191.244 44.5801 191.432 44.1816C191.631 43.7832 191.766 43.3086 191.836 42.7578C191.906 42.207 191.941 41.6211 191.941 41V37.0273C191.648 36.7461 191.256 36.5117 190.764 36.3242C190.271 36.125 189.797 36.0254 189.34 36.0254C188.812 36.0254 188.385 36.1602 188.057 36.4297C187.74 36.6875 187.482 37.0391 187.283 37.4844C187.096 37.9297 186.967 38.4453 186.896 39.0312C186.826 39.6172 186.791 40.2207 186.791 40.8418Z"/>
<path d="M215.109 33.4238C214.512 33.4238 213.996 33.4707 213.562 33.5645C213.141 33.6465 212.777 33.7461 212.473 33.8633C212.168 33.9805 211.916 34.1152 211.717 34.2676C211.518 34.4082 211.342 34.5371 211.189 34.6543L211.365 34.8301C211.588 34.7129 211.828 34.5957 212.086 34.4785C212.355 34.3613 212.695 34.3027 213.105 34.3027C213.797 34.3027 214.395 34.5312 214.898 34.9883C215.402 35.4336 215.654 36.1484 215.654 37.1328C215.654 38.0703 215.268 38.8262 214.494 39.4004C213.732 39.9629 212.707 40.2441 211.418 40.2441C210.188 40.2441 209.203 39.8926 208.465 39.1895C207.738 38.4746 207.375 37.4668 207.375 36.166C207.375 35.4512 207.574 34.7422 207.973 34.0391C208.371 33.3242 208.986 32.6855 209.818 32.123C210.662 31.5605 211.729 31.0977 213.018 30.7344C214.318 30.3711 215.883 30.1895 217.711 30.1895C219.891 30.1895 221.672 30.3945 223.055 30.8047C224.438 31.2148 225.51 31.7422 226.271 32.3867C227.045 33.0312 227.572 33.7637 227.854 34.584C228.146 35.4043 228.293 36.2305 228.293 37.0625V43.9355C228.293 45.002 228.328 45.7285 228.398 46.1152C228.469 46.4902 228.732 46.6777 229.189 46.6777C229.553 46.6777 229.805 46.5078 229.945 46.168C230.098 45.8164 230.174 45.2188 230.174 44.375V42.1777H232.178V44.4102C232.178 45.4648 232.09 46.4023 231.914 47.2227C231.738 48.0312 231.404 48.7285 230.912 49.3145C230.42 49.8887 229.752 50.3223 228.908 50.6152C228.064 50.9199 226.986 51.0723 225.674 51.0723C224.49 51.0723 223.506 50.9434 222.721 50.6855C221.947 50.4395 221.332 50.1289 220.875 49.7539C220.418 49.3789 220.09 48.9922 219.891 48.5938C219.703 48.1836 219.609 47.8203 219.609 47.5039H219.328C219.258 47.9844 219.053 48.4414 218.713 48.875C218.385 49.3086 217.922 49.6953 217.324 50.0352C216.738 50.3633 216.029 50.627 215.197 50.8262C214.377 51.0371 213.439 51.1426 212.385 51.1426C211.377 51.1426 210.457 51.043 209.625 50.8438C208.805 50.6562 208.102 50.3574 207.516 49.9473C206.941 49.5254 206.49 48.9863 206.162 48.3301C205.846 47.6621 205.688 46.8711 205.688 45.957C205.688 44.832 206.004 43.9473 206.637 43.3027C207.27 42.6465 208.066 42.1309 209.027 41.7559C209.988 41.3691 211.031 41.0586 212.156 40.8242C213.293 40.5781 214.342 40.2852 215.303 39.9453C216.264 39.6055 217.061 39.166 217.693 38.627C218.326 38.0879 218.643 37.3262 218.643 36.3418C218.643 35.4629 218.367 34.7598 217.816 34.2324C217.266 33.6934 216.363 33.4238 215.109 33.4238ZM218.643 41.0352C218.385 41.4102 218.062 41.7148 217.676 41.9492C217.289 42.1719 216.914 42.3945 216.551 42.6172C216.199 42.8281 215.889 43.0859 215.619 43.3906C215.361 43.6836 215.232 44.082 215.232 44.5859C215.232 44.9727 215.338 45.3242 215.549 45.6406C215.76 45.9453 216.17 46.0977 216.779 46.0977C217.33 46.0977 217.775 45.8867 218.115 45.4648C218.467 45.0312 218.643 44.4277 218.643 43.6543V41.0352Z"/>
<path d="M257.209 24.459V42.3887C257.209 42.8691 257.338 43.2324 257.596 43.4785C257.865 43.7129 258.24 43.8301 258.721 43.8301H259.723V50.3516H247.91V47.1523H247.629C247.441 47.6562 247.166 48.1367 246.803 48.5938C246.439 49.0508 245.994 49.4551 245.467 49.8066C244.939 50.1465 244.312 50.416 243.586 50.6152C242.871 50.8262 242.057 50.9316 241.143 50.9316C238.271 50.9316 236.098 50.0645 234.621 48.3301C233.145 46.584 232.406 44.0293 232.406 40.666C232.406 37.3027 233.197 34.8066 234.779 33.1777C236.361 31.5488 238.535 30.7344 241.301 30.7344C242.039 30.7344 242.701 30.793 243.287 30.9102C243.873 31.0273 244.406 31.1797 244.887 31.3672C245.367 31.543 245.824 31.748 246.258 31.9824C246.691 32.2051 247.125 32.4219 247.559 32.6328V32C247.559 31.3672 247.447 30.9219 247.225 30.6641C247.014 30.3945 246.598 30.2598 245.977 30.2598H245.045V24.459H257.209ZM242.408 40.8418C242.408 41.4746 242.443 42.0723 242.514 42.6348C242.584 43.1973 242.713 43.6895 242.9 44.1113C243.1 44.5332 243.357 44.8613 243.674 45.0957C244.002 45.3301 244.43 45.4473 244.957 45.4473C245.484 45.4473 245.918 45.3359 246.258 45.1133C246.598 44.8906 246.861 44.5801 247.049 44.1816C247.248 43.7832 247.383 43.3086 247.453 42.7578C247.523 42.207 247.559 41.6211 247.559 41V37.0273C247.266 36.7461 246.873 36.5117 246.381 36.3242C245.889 36.125 245.414 36.0254 244.957 36.0254C244.43 36.0254 244.002 36.1602 243.674 36.4297C243.357 36.6875 243.1 37.0391 242.9 37.4844C242.713 37.9297 242.584 38.4453 242.514 39.0312C242.443 39.6172 242.408 40.2207 242.408 40.8418Z"/>
<path d="M271.377 41.7559C271.424 43.502 271.752 44.709 272.361 45.377C272.982 46.0332 273.867 46.3613 275.016 46.3613C275.402 46.3613 275.777 46.3086 276.141 46.2031C276.516 46.0859 276.861 45.9043 277.178 45.6582C277.494 45.4004 277.764 45.0664 277.986 44.6562C278.221 44.2344 278.373 43.707 278.443 43.0742H284.842C284.607 44.5859 284.174 45.8516 283.541 46.8711C282.92 47.8906 282.117 48.7168 281.133 49.3496C280.148 49.9707 279 50.416 277.688 50.6855C276.387 50.9668 274.934 51.1074 273.328 51.1074C271.676 51.1074 270.123 50.8965 268.67 50.4746C267.217 50.0527 265.939 49.4141 264.838 48.5586C263.748 47.6914 262.893 46.6074 262.271 45.3066C261.65 43.9941 261.34 42.4355 261.34 40.6309C261.34 38.9082 261.633 37.3965 262.219 36.0957C262.805 34.7949 263.625 33.7109 264.68 32.8438C265.746 31.9648 267 31.3027 268.441 30.8574C269.895 30.4121 271.488 30.1895 273.223 30.1895C275.355 30.1895 277.189 30.4707 278.725 31.0332C280.26 31.5957 281.514 32.3809 282.486 33.3887C283.459 34.3965 284.174 35.6094 284.631 37.0273C285.088 38.4453 285.305 40.0215 285.281 41.7559H271.377ZM273.979 34.9355C273.158 34.9355 272.549 35.2285 272.15 35.8145C271.764 36.3887 271.506 37.3438 271.377 38.6797H276.527C276.457 37.5312 276.211 36.623 275.789 35.9551C275.367 35.2754 274.764 34.9355 273.979 34.9355Z"/>
<path d="M147.627 70.459V76.9805C146.736 76.9805 146.115 77.1211 145.764 77.4023C145.424 77.6719 145.254 78.123 145.254 78.7559V86.877C145.254 87.3105 145.301 87.7266 145.395 88.125C145.488 88.5234 145.646 88.8809 145.869 89.1973C146.104 89.502 146.408 89.748 146.783 89.9355C147.17 90.1113 147.656 90.1992 148.242 90.1992C149.367 90.1992 150.188 89.9062 150.703 89.3203C151.219 88.7227 151.477 87.9199 151.477 86.9121V78.8262C151.477 78.0996 151.26 77.6133 150.826 77.3672C150.393 77.1094 149.795 76.9805 149.033 76.9805V70.459H160.617V76.9805C159.832 76.9805 159.229 77.0977 158.807 77.332C158.385 77.5547 158.174 78.0293 158.174 78.7559V87.1406C158.174 88.2188 158.033 89.3438 157.752 90.5156C157.482 91.6758 156.943 92.7422 156.135 93.7148C155.338 94.6758 154.195 95.4785 152.707 96.123C151.219 96.7559 149.25 97.0723 146.801 97.0723C145.02 97.0723 143.484 96.9082 142.195 96.5801C140.918 96.2637 139.834 95.8418 138.943 95.3145C138.053 94.7871 137.344 94.1895 136.816 93.5215C136.289 92.8418 135.879 92.1445 135.586 91.4297C135.305 90.7031 135.117 90 135.023 89.3203C134.93 88.6289 134.883 87.9961 134.883 87.4219V78.9668C134.883 78.1934 134.66 77.6719 134.215 77.4023C133.77 77.1211 133.031 76.9805 132 76.9805V70.459H147.627Z"/>
<path d="M178.986 85.1191C178.986 84.6621 178.928 84.2988 178.811 84.0293C178.705 83.748 178.564 83.5371 178.389 83.3965C178.225 83.2441 178.037 83.1445 177.826 83.0977C177.615 83.0508 177.41 83.0273 177.211 83.0273C176.449 83.0273 175.881 83.25 175.506 83.6953C175.131 84.1406 174.943 84.7734 174.943 85.5938V88.1074C174.943 88.7285 175.049 89.1738 175.26 89.4434C175.482 89.7012 175.904 89.8301 176.525 89.8301H177.475V96.3516H162.779V89.8301H163.816C164.297 89.8301 164.66 89.6777 164.906 89.373C165.164 89.0566 165.293 88.6816 165.293 88.248V84.9082C165.293 84.3574 165.129 83.9883 164.801 83.8008C164.484 83.6016 164.121 83.502 163.711 83.502H162.779V76.9805H173.221L172.852 81.8145H173.15C173.408 80.0098 174.199 78.6211 175.523 77.6484C176.848 76.6758 178.646 76.1895 180.92 76.1895C182.525 76.1895 183.832 76.418 184.84 76.875C185.848 77.332 186.627 77.9121 187.178 78.6152C187.74 79.3066 188.121 80.0625 188.32 80.8828C188.52 81.6914 188.619 82.4531 188.619 83.168V88.1074C188.619 88.7285 188.725 89.1738 188.936 89.4434C189.158 89.7012 189.58 89.8301 190.201 89.8301H191.15V96.3516H178.986V85.1191Z"/>
<path d="M205.213 76.9805V87.9316C205.213 88.7168 205.406 89.2324 205.793 89.4785C206.18 89.7129 206.672 89.8301 207.27 89.8301H207.744V96.3516H192.943V89.8301H193.629C194.25 89.8301 194.707 89.6367 195 89.25C195.305 88.8516 195.457 88.4238 195.457 87.9668V85.4883C195.457 84.8086 195.24 84.3105 194.807 83.9941C194.385 83.666 193.893 83.502 193.33 83.502H192.943V76.9805H205.213ZM195.176 72.6562C195.176 71.6484 195.557 70.7871 196.318 70.0723C197.092 69.3574 198.188 69 199.605 69C201.047 69 202.154 69.3574 202.928 70.0723C203.713 70.7871 204.105 71.6484 204.105 72.6562C204.105 73.6875 203.713 74.5605 202.928 75.2754C202.154 75.9785 201.047 76.3301 199.605 76.3301C198.188 76.3301 197.092 75.9785 196.318 75.2754C195.557 74.5605 195.176 73.6875 195.176 72.6562Z"/>
<path d="M233.408 70.459V88.3887C233.408 88.8691 233.537 89.2324 233.795 89.4785C234.064 89.7129 234.439 89.8301 234.92 89.8301H235.922V96.3516H224.109V93.1523H223.828C223.641 93.6562 223.365 94.1367 223.002 94.5938C222.639 95.0508 222.193 95.4551 221.666 95.8066C221.139 96.1465 220.512 96.416 219.785 96.6152C219.07 96.8262 218.256 96.9316 217.342 96.9316C214.471 96.9316 212.297 96.0645 210.82 94.3301C209.344 92.584 208.605 90.0293 208.605 86.666C208.605 83.3027 209.396 80.8066 210.979 79.1777C212.561 77.5488 214.734 76.7344 217.5 76.7344C218.238 76.7344 218.9 76.793 219.486 76.9102C220.072 77.0273 220.605 77.1797 221.086 77.3672C221.566 77.543 222.023 77.748 222.457 77.9824C222.891 78.2051 223.324 78.4219 223.758 78.6328V78C223.758 77.3672 223.646 76.9219 223.424 76.6641C223.213 76.3945 222.797 76.2598 222.176 76.2598H221.244V70.459H233.408ZM218.607 86.8418C218.607 87.4746 218.643 88.0723 218.713 88.6348C218.783 89.1973 218.912 89.6895 219.1 90.1113C219.299 90.5332 219.557 90.8613 219.873 91.0957C220.201 91.3301 220.629 91.4473 221.156 91.4473C221.684 91.4473 222.117 91.3359 222.457 91.1133C222.797 90.8906 223.061 90.5801 223.248 90.1816C223.447 89.7832 223.582 89.3086 223.652 88.7578C223.723 88.207 223.758 87.6211 223.758 87V83.0273C223.465 82.7461 223.072 82.5117 222.58 82.3242C222.088 82.125 221.613 82.0254 221.156 82.0254C220.629 82.0254 220.201 82.1602 219.873 82.4297C219.557 82.6875 219.299 83.0391 219.1 83.4844C218.912 83.9297 218.783 84.4453 218.713 85.0312C218.643 85.6172 218.607 86.2207 218.607 86.8418Z"/>
<path d="M246.926 79.4238C246.328 79.4238 245.812 79.4707 245.379 79.5645C244.957 79.6465 244.594 79.7461 244.289 79.8633C243.984 79.9805 243.732 80.1152 243.533 80.2676C243.334 80.4082 243.158 80.5371 243.006 80.6543L243.182 80.8301C243.404 80.7129 243.645 80.5957 243.902 80.4785C244.172 80.3613 244.512 80.3027 244.922 80.3027C245.613 80.3027 246.211 80.5312 246.715 80.9883C247.219 81.4336 247.471 82.1484 247.471 83.1328C247.471 84.0703 247.084 84.8262 246.311 85.4004C245.549 85.9629 244.523 86.2441 243.234 86.2441C242.004 86.2441 241.02 85.8926 240.281 85.1895C239.555 84.4746 239.191 83.4668 239.191 82.166C239.191 81.4512 239.391 80.7422 239.789 80.0391C240.188 79.3242 240.803 78.6855 241.635 78.123C242.479 77.5605 243.545 77.0977 244.834 76.7344C246.135 76.3711 247.699 76.1895 249.527 76.1895C251.707 76.1895 253.488 76.3945 254.871 76.8047C256.254 77.2148 257.326 77.7422 258.088 78.3867C258.861 79.0312 259.389 79.7637 259.67 80.584C259.963 81.4043 260.109 82.2305 260.109 83.0625V89.9355C260.109 91.002 260.145 91.7285 260.215 92.1152C260.285 92.4902 260.549 92.6777 261.006 92.6777C261.369 92.6777 261.621 92.5078 261.762 92.168C261.914 91.8164 261.99 91.2188 261.99 90.375V88.1777H263.994V90.4102C263.994 91.4648 263.906 92.4023 263.73 93.2227C263.555 94.0312 263.221 94.7285 262.729 95.3145C262.236 95.8887 261.568 96.3223 260.725 96.6152C259.881 96.9199 258.803 97.0723 257.49 97.0723C256.307 97.0723 255.322 96.9434 254.537 96.6855C253.764 96.4395 253.148 96.1289 252.691 95.7539C252.234 95.3789 251.906 94.9922 251.707 94.5938C251.52 94.1836 251.426 93.8203 251.426 93.5039H251.145C251.074 93.9844 250.869 94.4414 250.529 94.875C250.201 95.3086 249.738 95.6953 249.141 96.0352C248.555 96.3633 247.846 96.627 247.014 96.8262C246.193 97.0371 245.256 97.1426 244.201 97.1426C243.193 97.1426 242.273 97.043 241.441 96.8438C240.621 96.6562 239.918 96.3574 239.332 95.9473C238.758 95.5254 238.307 94.9863 237.979 94.3301C237.662 93.6621 237.504 92.8711 237.504 91.957C237.504 90.832 237.82 89.9473 238.453 89.3027C239.086 88.6465 239.883 88.1309 240.844 87.7559C241.805 87.3691 242.848 87.0586 243.973 86.8242C245.109 86.5781 246.158 86.2852 247.119 85.9453C248.08 85.6055 248.877 85.166 249.51 84.627C250.143 84.0879 250.459 83.3262 250.459 82.3418C250.459 81.4629 250.184 80.7598 249.633 80.2324C249.082 79.6934 248.18 79.4238 246.926 79.4238ZM250.459 87.0352C250.201 87.4102 249.879 87.7148 249.492 87.9492C249.105 88.1719 248.73 88.3945 248.367 88.6172C248.016 88.8281 247.705 89.0859 247.436 89.3906C247.178 89.6836 247.049 90.082 247.049 90.5859C247.049 90.9727 247.154 91.3242 247.365 91.6406C247.576 91.9453 247.986 92.0977 248.596 92.0977C249.146 92.0977 249.592 91.8867 249.932 91.4648C250.283 91.0312 250.459 90.4277 250.459 89.6543V87.0352Z"/>
</mask>
<path d="M76.8633 118.881C74.3778 118.881 72.2652 118.022 70.5253 116.303C68.7855 114.583 67.9155 112.496 67.9155 110.04V80.5698C67.9155 78.114 68.7855 76.0265 70.5253 74.3074C72.2652 72.5883 74.3778 71.7287 76.8633 71.7287H85.8111L91.7763 65.8347H103.707L109.672 71.7287H118.62C121.105 71.7287 123.218 72.5883 124.958 74.3074C126.698 76.0265 127.568 78.114 127.568 80.5698V110.04C127.568 112.496 126.698 114.583 124.958 116.303C123.218 118.022 121.105 118.881 118.62 118.881H76.8633ZM97.7415 107.093C101.022 107.093 103.831 105.939 106.167 103.63C108.504 101.322 109.672 98.5467 109.672 95.305C109.672 92.0633 108.504 89.2881 106.167 86.9796C103.831 84.6711 101.022 83.5169 97.7415 83.5169C94.4607 83.5169 91.6521 84.6711 89.3157 86.9796C86.9793 89.2881 85.8111 92.0633 85.8111 95.305C85.8111 98.5467 86.9793 101.322 89.3157 103.63C91.6521 105.939 94.4607 107.093 97.7415 107.093ZM45.546 118.881L43.1599 100.02C41.8675 99.5291 40.6496 98.9397 39.5062 98.252C38.3629 97.5644 37.2444 96.8276 36.1508 96.0418L18.4043 103.409L2 75.4125L17.3604 63.9191C17.261 63.2315 17.2113 62.5684 17.2113 61.9299V57.9514C17.2113 57.3129 17.261 56.6498 17.3604 55.9621L2 44.4687L18.4043 16.4719L36.1508 23.8395C37.2444 23.0536 38.3878 22.3169 39.5808 21.6292C40.7738 20.9416 41.9669 20.3522 43.1599 19.861L45.546 1H78.3546L80.7407 19.861C82.0332 20.3522 83.2511 20.9416 84.3944 21.6292C85.5377 22.3169 86.6562 23.0536 87.7498 23.8395L105.496 16.4719L121.901 44.4687L109.225 54.0466H94.1624C94.063 53.5554 93.9636 53.0397 93.8642 52.4994C93.7648 51.9591 93.6156 51.4433 93.4168 50.9522L106.242 41.3743L100.426 31.3544L85.662 37.5432C83.4748 35.2838 81.0638 33.3928 78.4292 31.8702C75.7946 30.3475 72.9362 29.1933 69.8542 28.4074L67.9155 12.7881H56.1342L54.0464 28.4074C50.9644 29.1933 48.1061 30.3475 45.4714 31.8702C42.8368 33.3928 40.4259 35.2347 38.2386 37.3958L23.4747 31.3544L17.6587 41.3743L30.4839 50.8048C29.9868 52.2783 29.6388 53.7519 29.4399 55.2254C29.2411 56.6989 29.1417 58.2706 29.1417 59.9406C29.1417 61.5124 29.2411 63.035 29.4399 64.5085C29.6388 65.982 29.9868 67.4556 30.4839 68.9291L17.6587 78.5069L23.4747 88.5268L38.2386 82.3381C40.6247 84.7939 43.3091 86.8568 46.2917 88.5268C49.2743 90.1968 52.5054 91.2774 55.9851 91.7686V118.881H45.546Z" fill="#5BC561"/>
<path d="M78.3234 82.0743L63.4782 67.4061L69.1722 61.7799L84.0174 76.4481L78.3234 82.0743ZM40.9053 82.0743L35.2112 76.4481L53.9203 57.9622L49.3108 53.4077L47.4128 55.2831L43.9557 51.8672V57.3594L42.0576 59.2348L33.8555 51.1304L35.7535 49.2551H41.312L37.9227 45.9062L47.5483 36.3953C48.4522 35.5023 49.4238 34.8548 50.4632 34.4529C51.5025 34.0511 52.5645 33.8501 53.6491 33.8501C54.7337 33.8501 55.7957 34.0511 56.8351 34.4529C57.8745 34.8548 58.8461 35.5023 59.7499 36.3953L53.5135 42.5573L56.9029 45.9062L55.0048 47.7815L59.6143 52.336L65.7151 46.308C65.5343 45.8169 65.3875 45.3034 65.2745 44.7675C65.1615 44.2317 65.105 43.6959 65.105 43.1601C65.105 40.5256 66.0201 38.3042 67.8504 36.4958C69.6806 34.6873 71.9289 33.7831 74.5951 33.7831C75.273 33.7831 75.917 33.8501 76.527 33.9841C77.1371 34.118 77.7585 34.319 78.3912 34.5869L71.6803 41.2177L76.5609 46.0401L83.2718 39.4093C83.5881 40.0344 83.8028 40.6484 83.9158 41.2512C84.0287 41.854 84.0852 42.4903 84.0852 43.1601C84.0852 45.7945 83.1701 48.016 81.3399 49.8244C79.5097 51.6328 77.2614 52.537 74.5951 52.537C74.0528 52.537 73.5105 52.4923 72.9682 52.403C72.426 52.3137 71.9063 52.1574 71.4092 51.9342L40.9053 82.0743Z" fill="#5BC561"/>
<path d="M76.6008 119.122C74.0964 119.122 71.9677 118.253 70.2147 116.516C68.4617 114.778 67.5851 112.668 67.5851 110.186V80.4009C67.5851 77.9187 68.4617 75.8089 70.2147 74.0715C71.9677 72.334 74.0964 71.4653 76.6008 71.4653H85.6164L91.6268 65.5082H103.648L109.658 71.4653H118.674C121.178 71.4653 123.307 72.334 125.06 74.0715C126.813 75.8089 127.689 77.9187 127.689 80.4009V110.186C127.689 112.668 126.813 114.778 125.06 116.516C123.307 118.253 121.178 119.122 118.674 119.122H76.6008ZM97.6373 107.208C100.943 107.208 103.773 106.041 106.127 103.708C108.481 101.375 109.658 98.5699 109.658 95.2935C109.658 92.0172 108.481 89.2124 106.127 86.8792C103.773 84.546 100.943 83.3794 97.6373 83.3794C94.3315 83.3794 91.5016 84.546 89.1475 86.8792C86.7934 89.2124 85.6164 92.0172 85.6164 95.2935C85.6164 98.5699 86.7934 101.375 89.1475 103.708C91.5016 106.041 94.3315 107.208 97.6373 107.208Z" fill="#5BC561"/>
<path d="M145.324 23.7559C146.109 23.7559 146.842 23.8203 147.521 23.9492C148.213 24.0781 148.84 24.248 149.402 24.459C149.965 24.6582 150.451 24.875 150.861 25.1094C151.271 25.332 151.605 25.5371 151.863 25.7246V24.459H157.664V34.0391H151.512C151.512 33.2539 151.412 32.5977 151.213 32.0703C151.025 31.543 150.768 31.1152 150.439 30.7871C150.123 30.459 149.748 30.2246 149.314 30.084C148.881 29.9434 148.412 29.873 147.908 29.873C147.217 29.873 146.625 30.0078 146.133 30.2773C145.641 30.5352 145.236 30.957 144.92 31.543C144.615 32.1289 144.381 32.9082 144.217 33.8809C144.064 34.8535 143.988 36.0371 143.988 37.4316C143.988 38.8496 144.07 40.0391 144.234 41C144.41 41.9492 144.668 42.7227 145.008 43.3203C145.359 43.9062 145.805 44.334 146.344 44.6035C146.883 44.8613 147.527 44.9902 148.277 44.9902C148.781 44.9902 149.268 44.8965 149.736 44.709C150.205 44.5098 150.615 44.2109 150.967 43.8125C151.33 43.4141 151.611 42.916 151.811 42.3184C152.021 41.7207 152.127 41 152.127 40.1562H158.244C158.244 41.6445 158.01 43.0508 157.541 44.375C157.072 45.6992 156.34 46.8594 155.344 47.8555C154.348 48.8516 153.082 49.6426 151.547 50.2285C150.012 50.8145 148.189 51.1074 146.08 51.1074C144.182 51.1074 142.383 50.8496 140.684 50.334C138.996 49.8184 137.52 49.0098 136.254 47.9082C135 46.8066 134.004 45.3945 133.266 43.6719C132.539 41.9375 132.176 39.8574 132.176 37.4316C132.176 35.0059 132.545 32.9316 133.283 31.209C134.033 29.4746 135.018 28.0566 136.236 26.9551C137.467 25.8535 138.867 25.0449 140.438 24.5293C142.008 24.0137 143.637 23.7559 145.324 23.7559Z" fill="#D9D9D9"/>
<path d="M173.396 30.9805V41.9316C173.396 42.7168 173.59 43.2324 173.977 43.4785C174.363 43.7129 174.855 43.8301 175.453 43.8301H175.928V50.3516H161.127V43.8301H161.812C162.434 43.8301 162.891 43.6367 163.184 43.25C163.488 42.8516 163.641 42.4238 163.641 41.9668V39.4883C163.641 38.8086 163.424 38.3105 162.99 37.9941C162.568 37.666 162.076 37.502 161.514 37.502H161.127V30.9805H173.396ZM163.359 26.6562C163.359 25.6484 163.74 24.7871 164.502 24.0723C165.275 23.3574 166.371 23 167.789 23C169.23 23 170.338 23.3574 171.111 24.0723C171.896 24.7871 172.289 25.6484 172.289 26.6562C172.289 27.6875 171.896 28.5605 171.111 29.2754C170.338 29.9785 169.23 30.3301 167.789 30.3301C166.371 30.3301 165.275 29.9785 164.502 29.2754C163.74 28.5605 163.359 27.6875 163.359 26.6562Z" fill="#D9D9D9"/>
<path d="M201.592 24.459V42.3887C201.592 42.8691 201.721 43.2324 201.979 43.4785C202.248 43.7129 202.623 43.8301 203.104 43.8301H204.105V50.3516H192.293V47.1523H192.012C191.824 47.6562 191.549 48.1367 191.186 48.5938C190.822 49.0508 190.377 49.4551 189.85 49.8066C189.322 50.1465 188.695 50.416 187.969 50.6152C187.254 50.8262 186.439 50.9316 185.525 50.9316C182.654 50.9316 180.48 50.0645 179.004 48.3301C177.527 46.584 176.789 44.0293 176.789 40.666C176.789 37.3027 177.58 34.8066 179.162 33.1777C180.744 31.5488 182.918 30.7344 185.684 30.7344C186.422 30.7344 187.084 30.793 187.67 30.9102C188.256 31.0273 188.789 31.1797 189.27 31.3672C189.75 31.543 190.207 31.748 190.641 31.9824C191.074 32.2051 191.508 32.4219 191.941 32.6328V32C191.941 31.3672 191.83 30.9219 191.607 30.6641C191.396 30.3945 190.98 30.2598 190.359 30.2598H189.428V24.459H201.592ZM186.791 40.8418C186.791 41.4746 186.826 42.0723 186.896 42.6348C186.967 43.1973 187.096 43.6895 187.283 44.1113C187.482 44.5332 187.74 44.8613 188.057 45.0957C188.385 45.3301 188.812 45.4473 189.34 45.4473C189.867 45.4473 190.301 45.3359 190.641 45.1133C190.98 44.8906 191.244 44.5801 191.432 44.1816C191.631 43.7832 191.766 43.3086 191.836 42.7578C191.906 42.207 191.941 41.6211 191.941 41V37.0273C191.648 36.7461 191.256 36.5117 190.764 36.3242C190.271 36.125 189.797 36.0254 189.34 36.0254C188.812 36.0254 188.385 36.1602 188.057 36.4297C187.74 36.6875 187.482 37.0391 187.283 37.4844C187.096 37.9297 186.967 38.4453 186.896 39.0312C186.826 39.6172 186.791 40.2207 186.791 40.8418Z" fill="#D9D9D9"/>
<path d="M215.109 33.4238C214.512 33.4238 213.996 33.4707 213.562 33.5645C213.141 33.6465 212.777 33.7461 212.473 33.8633C212.168 33.9805 211.916 34.1152 211.717 34.2676C211.518 34.4082 211.342 34.5371 211.189 34.6543L211.365 34.8301C211.588 34.7129 211.828 34.5957 212.086 34.4785C212.355 34.3613 212.695 34.3027 213.105 34.3027C213.797 34.3027 214.395 34.5312 214.898 34.9883C215.402 35.4336 215.654 36.1484 215.654 37.1328C215.654 38.0703 215.268 38.8262 214.494 39.4004C213.732 39.9629 212.707 40.2441 211.418 40.2441C210.188 40.2441 209.203 39.8926 208.465 39.1895C207.738 38.4746 207.375 37.4668 207.375 36.166C207.375 35.4512 207.574 34.7422 207.973 34.0391C208.371 33.3242 208.986 32.6855 209.818 32.123C210.662 31.5605 211.729 31.0977 213.018 30.7344C214.318 30.3711 215.883 30.1895 217.711 30.1895C219.891 30.1895 221.672 30.3945 223.055 30.8047C224.438 31.2148 225.51 31.7422 226.271 32.3867C227.045 33.0312 227.572 33.7637 227.854 34.584C228.146 35.4043 228.293 36.2305 228.293 37.0625V43.9355C228.293 45.002 228.328 45.7285 228.398 46.1152C228.469 46.4902 228.732 46.6777 229.189 46.6777C229.553 46.6777 229.805 46.5078 229.945 46.168C230.098 45.8164 230.174 45.2188 230.174 44.375V42.1777H232.178V44.4102C232.178 45.4648 232.09 46.4023 231.914 47.2227C231.738 48.0312 231.404 48.7285 230.912 49.3145C230.42 49.8887 229.752 50.3223 228.908 50.6152C228.064 50.9199 226.986 51.0723 225.674 51.0723C224.49 51.0723 223.506 50.9434 222.721 50.6855C221.947 50.4395 221.332 50.1289 220.875 49.7539C220.418 49.3789 220.09 48.9922 219.891 48.5938C219.703 48.1836 219.609 47.8203 219.609 47.5039H219.328C219.258 47.9844 219.053 48.4414 218.713 48.875C218.385 49.3086 217.922 49.6953 217.324 50.0352C216.738 50.3633 216.029 50.627 215.197 50.8262C214.377 51.0371 213.439 51.1426 212.385 51.1426C211.377 51.1426 210.457 51.043 209.625 50.8438C208.805 50.6562 208.102 50.3574 207.516 49.9473C206.941 49.5254 206.49 48.9863 206.162 48.3301C205.846 47.6621 205.688 46.8711 205.688 45.957C205.688 44.832 206.004 43.9473 206.637 43.3027C207.27 42.6465 208.066 42.1309 209.027 41.7559C209.988 41.3691 211.031 41.0586 212.156 40.8242C213.293 40.5781 214.342 40.2852 215.303 39.9453C216.264 39.6055 217.061 39.166 217.693 38.627C218.326 38.0879 218.643 37.3262 218.643 36.3418C218.643 35.4629 218.367 34.7598 217.816 34.2324C217.266 33.6934 216.363 33.4238 215.109 33.4238ZM218.643 41.0352C218.385 41.4102 218.062 41.7148 217.676 41.9492C217.289 42.1719 216.914 42.3945 216.551 42.6172C216.199 42.8281 215.889 43.0859 215.619 43.3906C215.361 43.6836 215.232 44.082 215.232 44.5859C215.232 44.9727 215.338 45.3242 215.549 45.6406C215.76 45.9453 216.17 46.0977 216.779 46.0977C217.33 46.0977 217.775 45.8867 218.115 45.4648C218.467 45.0312 218.643 44.4277 218.643 43.6543V41.0352Z" fill="#D9D9D9"/>
<path d="M257.209 24.459V42.3887C257.209 42.8691 257.338 43.2324 257.596 43.4785C257.865 43.7129 258.24 43.8301 258.721 43.8301H259.723V50.3516H247.91V47.1523H247.629C247.441 47.6562 247.166 48.1367 246.803 48.5938C246.439 49.0508 245.994 49.4551 245.467 49.8066C244.939 50.1465 244.312 50.416 243.586 50.6152C242.871 50.8262 242.057 50.9316 241.143 50.9316C238.271 50.9316 236.098 50.0645 234.621 48.3301C233.145 46.584 232.406 44.0293 232.406 40.666C232.406 37.3027 233.197 34.8066 234.779 33.1777C236.361 31.5488 238.535 30.7344 241.301 30.7344C242.039 30.7344 242.701 30.793 243.287 30.9102C243.873 31.0273 244.406 31.1797 244.887 31.3672C245.367 31.543 245.824 31.748 246.258 31.9824C246.691 32.2051 247.125 32.4219 247.559 32.6328V32C247.559 31.3672 247.447 30.9219 247.225 30.6641C247.014 30.3945 246.598 30.2598 245.977 30.2598H245.045V24.459H257.209ZM242.408 40.8418C242.408 41.4746 242.443 42.0723 242.514 42.6348C242.584 43.1973 242.713 43.6895 242.9 44.1113C243.1 44.5332 243.357 44.8613 243.674 45.0957C244.002 45.3301 244.43 45.4473 244.957 45.4473C245.484 45.4473 245.918 45.3359 246.258 45.1133C246.598 44.8906 246.861 44.5801 247.049 44.1816C247.248 43.7832 247.383 43.3086 247.453 42.7578C247.523 42.207 247.559 41.6211 247.559 41V37.0273C247.266 36.7461 246.873 36.5117 246.381 36.3242C245.889 36.125 245.414 36.0254 244.957 36.0254C244.43 36.0254 244.002 36.1602 243.674 36.4297C243.357 36.6875 243.1 37.0391 242.9 37.4844C242.713 37.9297 242.584 38.4453 242.514 39.0312C242.443 39.6172 242.408 40.2207 242.408 40.8418Z" fill="#D9D9D9"/>
<path d="M271.377 41.7559C271.424 43.502 271.752 44.709 272.361 45.377C272.982 46.0332 273.867 46.3613 275.016 46.3613C275.402 46.3613 275.777 46.3086 276.141 46.2031C276.516 46.0859 276.861 45.9043 277.178 45.6582C277.494 45.4004 277.764 45.0664 277.986 44.6562C278.221 44.2344 278.373 43.707 278.443 43.0742H284.842C284.607 44.5859 284.174 45.8516 283.541 46.8711C282.92 47.8906 282.117 48.7168 281.133 49.3496C280.148 49.9707 279 50.416 277.688 50.6855C276.387 50.9668 274.934 51.1074 273.328 51.1074C271.676 51.1074 270.123 50.8965 268.67 50.4746C267.217 50.0527 265.939 49.4141 264.838 48.5586C263.748 47.6914 262.893 46.6074 262.271 45.3066C261.65 43.9941 261.34 42.4355 261.34 40.6309C261.34 38.9082 261.633 37.3965 262.219 36.0957C262.805 34.7949 263.625 33.7109 264.68 32.8438C265.746 31.9648 267 31.3027 268.441 30.8574C269.895 30.4121 271.488 30.1895 273.223 30.1895C275.355 30.1895 277.189 30.4707 278.725 31.0332C280.26 31.5957 281.514 32.3809 282.486 33.3887C283.459 34.3965 284.174 35.6094 284.631 37.0273C285.088 38.4453 285.305 40.0215 285.281 41.7559H271.377ZM273.979 34.9355C273.158 34.9355 272.549 35.2285 272.15 35.8145C271.764 36.3887 271.506 37.3438 271.377 38.6797H276.527C276.457 37.5312 276.211 36.623 275.789 35.9551C275.367 35.2754 274.764 34.9355 273.979 34.9355Z" fill="#D9D9D9"/>
<path d="M147.627 70.459V76.9805C146.736 76.9805 146.115 77.1211 145.764 77.4023C145.424 77.6719 145.254 78.123 145.254 78.7559V86.877C145.254 87.3105 145.301 87.7266 145.395 88.125C145.488 88.5234 145.646 88.8809 145.869 89.1973C146.104 89.502 146.408 89.748 146.783 89.9355C147.17 90.1113 147.656 90.1992 148.242 90.1992C149.367 90.1992 150.188 89.9062 150.703 89.3203C151.219 88.7227 151.477 87.9199 151.477 86.9121V78.8262C151.477 78.0996 151.26 77.6133 150.826 77.3672C150.393 77.1094 149.795 76.9805 149.033 76.9805V70.459H160.617V76.9805C159.832 76.9805 159.229 77.0977 158.807 77.332C158.385 77.5547 158.174 78.0293 158.174 78.7559V87.1406C158.174 88.2188 158.033 89.3438 157.752 90.5156C157.482 91.6758 156.943 92.7422 156.135 93.7148C155.338 94.6758 154.195 95.4785 152.707 96.123C151.219 96.7559 149.25 97.0723 146.801 97.0723C145.02 97.0723 143.484 96.9082 142.195 96.5801C140.918 96.2637 139.834 95.8418 138.943 95.3145C138.053 94.7871 137.344 94.1895 136.816 93.5215C136.289 92.8418 135.879 92.1445 135.586 91.4297C135.305 90.7031 135.117 90 135.023 89.3203C134.93 88.6289 134.883 87.9961 134.883 87.4219V78.9668C134.883 78.1934 134.66 77.6719 134.215 77.4023C133.77 77.1211 133.031 76.9805 132 76.9805V70.459H147.627Z" fill="#D9D9D9"/>
<path d="M178.986 85.1191C178.986 84.6621 178.928 84.2988 178.811 84.0293C178.705 83.748 178.564 83.5371 178.389 83.3965C178.225 83.2441 178.037 83.1445 177.826 83.0977C177.615 83.0508 177.41 83.0273 177.211 83.0273C176.449 83.0273 175.881 83.25 175.506 83.6953C175.131 84.1406 174.943 84.7734 174.943 85.5938V88.1074C174.943 88.7285 175.049 89.1738 175.26 89.4434C175.482 89.7012 175.904 89.8301 176.525 89.8301H177.475V96.3516H162.779V89.8301H163.816C164.297 89.8301 164.66 89.6777 164.906 89.373C165.164 89.0566 165.293 88.6816 165.293 88.248V84.9082C165.293 84.3574 165.129 83.9883 164.801 83.8008C164.484 83.6016 164.121 83.502 163.711 83.502H162.779V76.9805H173.221L172.852 81.8145H173.15C173.408 80.0098 174.199 78.6211 175.523 77.6484C176.848 76.6758 178.646 76.1895 180.92 76.1895C182.525 76.1895 183.832 76.418 184.84 76.875C185.848 77.332 186.627 77.9121 187.178 78.6152C187.74 79.3066 188.121 80.0625 188.32 80.8828C188.52 81.6914 188.619 82.4531 188.619 83.168V88.1074C188.619 88.7285 188.725 89.1738 188.936 89.4434C189.158 89.7012 189.58 89.8301 190.201 89.8301H191.15V96.3516H178.986V85.1191Z" fill="#D9D9D9"/>
<path d="M205.213 76.9805V87.9316C205.213 88.7168 205.406 89.2324 205.793 89.4785C206.18 89.7129 206.672 89.8301 207.27 89.8301H207.744V96.3516H192.943V89.8301H193.629C194.25 89.8301 194.707 89.6367 195 89.25C195.305 88.8516 195.457 88.4238 195.457 87.9668V85.4883C195.457 84.8086 195.24 84.3105 194.807 83.9941C194.385 83.666 193.893 83.502 193.33 83.502H192.943V76.9805H205.213ZM195.176 72.6562C195.176 71.6484 195.557 70.7871 196.318 70.0723C197.092 69.3574 198.188 69 199.605 69C201.047 69 202.154 69.3574 202.928 70.0723C203.713 70.7871 204.105 71.6484 204.105 72.6562C204.105 73.6875 203.713 74.5605 202.928 75.2754C202.154 75.9785 201.047 76.3301 199.605 76.3301C198.188 76.3301 197.092 75.9785 196.318 75.2754C195.557 74.5605 195.176 73.6875 195.176 72.6562Z" fill="#D9D9D9"/>
<path d="M233.408 70.459V88.3887C233.408 88.8691 233.537 89.2324 233.795 89.4785C234.064 89.7129 234.439 89.8301 234.92 89.8301H235.922V96.3516H224.109V93.1523H223.828C223.641 93.6562 223.365 94.1367 223.002 94.5938C222.639 95.0508 222.193 95.4551 221.666 95.8066C221.139 96.1465 220.512 96.416 219.785 96.6152C219.07 96.8262 218.256 96.9316 217.342 96.9316C214.471 96.9316 212.297 96.0645 210.82 94.3301C209.344 92.584 208.605 90.0293 208.605 86.666C208.605 83.3027 209.396 80.8066 210.979 79.1777C212.561 77.5488 214.734 76.7344 217.5 76.7344C218.238 76.7344 218.9 76.793 219.486 76.9102C220.072 77.0273 220.605 77.1797 221.086 77.3672C221.566 77.543 222.023 77.748 222.457 77.9824C222.891 78.2051 223.324 78.4219 223.758 78.6328V78C223.758 77.3672 223.646 76.9219 223.424 76.6641C223.213 76.3945 222.797 76.2598 222.176 76.2598H221.244V70.459H233.408ZM218.607 86.8418C218.607 87.4746 218.643 88.0723 218.713 88.6348C218.783 89.1973 218.912 89.6895 219.1 90.1113C219.299 90.5332 219.557 90.8613 219.873 91.0957C220.201 91.3301 220.629 91.4473 221.156 91.4473C221.684 91.4473 222.117 91.3359 222.457 91.1133C222.797 90.8906 223.061 90.5801 223.248 90.1816C223.447 89.7832 223.582 89.3086 223.652 88.7578C223.723 88.207 223.758 87.6211 223.758 87V83.0273C223.465 82.7461 223.072 82.5117 222.58 82.3242C222.088 82.125 221.613 82.0254 221.156 82.0254C220.629 82.0254 220.201 82.1602 219.873 82.4297C219.557 82.6875 219.299 83.0391 219.1 83.4844C218.912 83.9297 218.783 84.4453 218.713 85.0312C218.643 85.6172 218.607 86.2207 218.607 86.8418Z" fill="#D9D9D9"/>
<path d="M246.926 79.4238C246.328 79.4238 245.812 79.4707 245.379 79.5645C244.957 79.6465 244.594 79.7461 244.289 79.8633C243.984 79.9805 243.732 80.1152 243.533 80.2676C243.334 80.4082 243.158 80.5371 243.006 80.6543L243.182 80.8301C243.404 80.7129 243.645 80.5957 243.902 80.4785C244.172 80.3613 244.512 80.3027 244.922 80.3027C245.613 80.3027 246.211 80.5312 246.715 80.9883C247.219 81.4336 247.471 82.1484 247.471 83.1328C247.471 84.0703 247.084 84.8262 246.311 85.4004C245.549 85.9629 244.523 86.2441 243.234 86.2441C242.004 86.2441 241.02 85.8926 240.281 85.1895C239.555 84.4746 239.191 83.4668 239.191 82.166C239.191 81.4512 239.391 80.7422 239.789 80.0391C240.188 79.3242 240.803 78.6855 241.635 78.123C242.479 77.5605 243.545 77.0977 244.834 76.7344C246.135 76.3711 247.699 76.1895 249.527 76.1895C251.707 76.1895 253.488 76.3945 254.871 76.8047C256.254 77.2148 257.326 77.7422 258.088 78.3867C258.861 79.0312 259.389 79.7637 259.67 80.584C259.963 81.4043 260.109 82.2305 260.109 83.0625V89.9355C260.109 91.002 260.145 91.7285 260.215 92.1152C260.285 92.4902 260.549 92.6777 261.006 92.6777C261.369 92.6777 261.621 92.5078 261.762 92.168C261.914 91.8164 261.99 91.2188 261.99 90.375V88.1777H263.994V90.4102C263.994 91.4648 263.906 92.4023 263.73 93.2227C263.555 94.0312 263.221 94.7285 262.729 95.3145C262.236 95.8887 261.568 96.3223 260.725 96.6152C259.881 96.9199 258.803 97.0723 257.49 97.0723C256.307 97.0723 255.322 96.9434 254.537 96.6855C253.764 96.4395 253.148 96.1289 252.691 95.7539C252.234 95.3789 251.906 94.9922 251.707 94.5938C251.52 94.1836 251.426 93.8203 251.426 93.5039H251.145C251.074 93.9844 250.869 94.4414 250.529 94.875C250.201 95.3086 249.738 95.6953 249.141 96.0352C248.555 96.3633 247.846 96.627 247.014 96.8262C246.193 97.0371 245.256 97.1426 244.201 97.1426C243.193 97.1426 242.273 97.043 241.441 96.8438C240.621 96.6562 239.918 96.3574 239.332 95.9473C238.758 95.5254 238.307 94.9863 237.979 94.3301C237.662 93.6621 237.504 92.8711 237.504 91.957C237.504 90.832 237.82 89.9473 238.453 89.3027C239.086 88.6465 239.883 88.1309 240.844 87.7559C241.805 87.3691 242.848 87.0586 243.973 86.8242C245.109 86.5781 246.158 86.2852 247.119 85.9453C248.08 85.6055 248.877 85.166 249.51 84.627C250.143 84.0879 250.459 83.3262 250.459 82.3418C250.459 81.4629 250.184 80.7598 249.633 80.2324C249.082 79.6934 248.18 79.4238 246.926 79.4238ZM250.459 87.0352C250.201 87.4102 249.879 87.7148 249.492 87.9492C249.105 88.1719 248.73 88.3945 248.367 88.6172C248.016 88.8281 247.705 89.0859 247.436 89.3906C247.178 89.6836 247.049 90.082 247.049 90.5859C247.049 90.9727 247.154 91.3242 247.365 91.6406C247.576 91.9453 247.986 92.0977 248.596 92.0977C249.146 92.0977 249.592 91.8867 249.932 91.4648C250.283 91.0312 250.459 90.4277 250.459 89.6543V87.0352Z" fill="#D9D9D9"/>
<path d="M76.8633 118.881C74.3778 118.881 72.2652 118.022 70.5253 116.303C68.7855 114.583 67.9155 112.496 67.9155 110.04V80.5698C67.9155 78.114 68.7855 76.0265 70.5253 74.3074C72.2652 72.5883 74.3778 71.7287 76.8633 71.7287H85.8111L91.7763 65.8347H103.707L109.672 71.7287H118.62C121.105 71.7287 123.218 72.5883 124.958 74.3074C126.698 76.0265 127.568 78.114 127.568 80.5698V110.04C127.568 112.496 126.698 114.583 124.958 116.303C123.218 118.022 121.105 118.881 118.62 118.881H76.8633ZM97.7415 107.093C101.022 107.093 103.831 105.939 106.167 103.63C108.504 101.322 109.672 98.5467 109.672 95.305C109.672 92.0633 108.504 89.2881 106.167 86.9796C103.831 84.6711 101.022 83.5169 97.7415 83.5169C94.4607 83.5169 91.6521 84.6711 89.3157 86.9796C86.9793 89.2881 85.8111 92.0633 85.8111 95.305C85.8111 98.5467 86.9793 101.322 89.3157 103.63C91.6521 105.939 94.4607 107.093 97.7415 107.093ZM45.546 118.881L43.1599 100.02C41.8675 99.5291 40.6496 98.9397 39.5062 98.252C38.3629 97.5644 37.2444 96.8276 36.1508 96.0418L18.4043 103.409L2 75.4125L17.3604 63.9191C17.261 63.2315 17.2113 62.5684 17.2113 61.9299V57.9514C17.2113 57.3129 17.261 56.6498 17.3604 55.9621L2 44.4687L18.4043 16.4719L36.1508 23.8395C37.2444 23.0536 38.3878 22.3169 39.5808 21.6292C40.7738 20.9416 41.9669 20.3522 43.1599 19.861L45.546 1H78.3546L80.7407 19.861C82.0332 20.3522 83.2511 20.9416 84.3944 21.6292C85.5377 22.3169 86.6562 23.0536 87.7498 23.8395L105.496 16.4719L121.901 44.4687L109.225 54.0466H94.1624C94.063 53.5554 93.9636 53.0397 93.8642 52.4994C93.7648 51.9591 93.6156 51.4433 93.4168 50.9522L106.242 41.3743L100.426 31.3544L85.662 37.5432C83.4748 35.2838 81.0638 33.3928 78.4292 31.8702C75.7946 30.3475 72.9362 29.1933 69.8542 28.4074L67.9155 12.7881H56.1342L54.0464 28.4074C50.9644 29.1933 48.1061 30.3475 45.4714 31.8702C42.8368 33.3928 40.4259 35.2347 38.2386 37.3958L23.4747 31.3544L17.6587 41.3743L30.4839 50.8048C29.9868 52.2783 29.6388 53.7519 29.4399 55.2254C29.2411 56.6989 29.1417 58.2706 29.1417 59.9406C29.1417 61.5124 29.2411 63.035 29.4399 64.5085C29.6388 65.982 29.9868 67.4556 30.4839 68.9291L17.6587 78.5069L23.4747 88.5268L38.2386 82.3381C40.6247 84.7939 43.3091 86.8568 46.2917 88.5268C49.2743 90.1968 52.5054 91.2774 55.9851 91.7686V118.881H45.546Z" stroke="black" stroke-width="2" mask="url(#path-1-outside-1_1_57)"/>
<path d="M78.3234 82.0743L63.4782 67.4061L69.1722 61.7799L84.0174 76.4481L78.3234 82.0743ZM40.9053 82.0743L35.2112 76.4481L53.9203 57.9622L49.3108 53.4077L47.4128 55.2831L43.9557 51.8672V57.3594L42.0576 59.2348L33.8555 51.1304L35.7535 49.2551H41.312L37.9227 45.9062L47.5483 36.3953C48.4522 35.5023 49.4238 34.8548 50.4632 34.4529C51.5025 34.0511 52.5645 33.8501 53.6491 33.8501C54.7337 33.8501 55.7957 34.0511 56.8351 34.4529C57.8745 34.8548 58.8461 35.5023 59.7499 36.3953L53.5135 42.5573L56.9029 45.9062L55.0048 47.7815L59.6143 52.336L65.7151 46.308C65.5343 45.8169 65.3875 45.3034 65.2745 44.7675C65.1615 44.2317 65.105 43.6959 65.105 43.1601C65.105 40.5256 66.0201 38.3042 67.8504 36.4958C69.6806 34.6873 71.9289 33.7831 74.5951 33.7831C75.273 33.7831 75.917 33.8501 76.527 33.9841C77.1371 34.118 77.7585 34.319 78.3912 34.5869L71.6803 41.2177L76.5609 46.0401L83.2718 39.4093C83.5881 40.0344 83.8028 40.6484 83.9158 41.2512C84.0287 41.854 84.0852 42.4903 84.0852 43.1601C84.0852 45.7945 83.1701 48.016 81.3399 49.8244C79.5097 51.6328 77.2614 52.537 74.5951 52.537C74.0528 52.537 73.5105 52.4923 72.9682 52.403C72.426 52.3137 71.9063 52.1574 71.4092 51.9342L40.9053 82.0743Z" stroke="black" stroke-width="2" mask="url(#path-1-outside-1_1_57)"/>
<path d="M76.6008 119.122C74.0964 119.122 71.9677 118.253 70.2147 116.516C68.4617 114.778 67.5851 112.668 67.5851 110.186V80.4009C67.5851 77.9187 68.4617 75.8089 70.2147 74.0715C71.9677 72.334 74.0964 71.4653 76.6008 71.4653H85.6164L91.6268 65.5082H103.648L109.658 71.4653H118.674C121.178 71.4653 123.307 72.334 125.06 74.0715C126.813 75.8089 127.689 77.9187 127.689 80.4009V110.186C127.689 112.668 126.813 114.778 125.06 116.516C123.307 118.253 121.178 119.122 118.674 119.122H76.6008ZM97.6373 107.208C100.943 107.208 103.773 106.041 106.127 103.708C108.481 101.375 109.658 98.5699 109.658 95.2935C109.658 92.0172 108.481 89.2124 106.127 86.8792C103.773 84.546 100.943 83.3794 97.6373 83.3794C94.3315 83.3794 91.5016 84.546 89.1475 86.8792C86.7934 89.2124 85.6164 92.0172 85.6164 95.2935C85.6164 98.5699 86.7934 101.375 89.1475 103.708C91.5016 106.041 94.3315 107.208 97.6373 107.208Z" stroke="black" stroke-width="2" mask="url(#path-1-outside-1_1_57)"/>
<path d="M145.324 23.7559C146.109 23.7559 146.842 23.8203 147.521 23.9492C148.213 24.0781 148.84 24.248 149.402 24.459C149.965 24.6582 150.451 24.875 150.861 25.1094C151.271 25.332 151.605 25.5371 151.863 25.7246V24.459H157.664V34.0391H151.512C151.512 33.2539 151.412 32.5977 151.213 32.0703C151.025 31.543 150.768 31.1152 150.439 30.7871C150.123 30.459 149.748 30.2246 149.314 30.084C148.881 29.9434 148.412 29.873 147.908 29.873C147.217 29.873 146.625 30.0078 146.133 30.2773C145.641 30.5352 145.236 30.957 144.92 31.543C144.615 32.1289 144.381 32.9082 144.217 33.8809C144.064 34.8535 143.988 36.0371 143.988 37.4316C143.988 38.8496 144.07 40.0391 144.234 41C144.41 41.9492 144.668 42.7227 145.008 43.3203C145.359 43.9062 145.805 44.334 146.344 44.6035C146.883 44.8613 147.527 44.9902 148.277 44.9902C148.781 44.9902 149.268 44.8965 149.736 44.709C150.205 44.5098 150.615 44.2109 150.967 43.8125C151.33 43.4141 151.611 42.916 151.811 42.3184C152.021 41.7207 152.127 41 152.127 40.1562H158.244C158.244 41.6445 158.01 43.0508 157.541 44.375C157.072 45.6992 156.34 46.8594 155.344 47.8555C154.348 48.8516 153.082 49.6426 151.547 50.2285C150.012 50.8145 148.189 51.1074 146.08 51.1074C144.182 51.1074 142.383 50.8496 140.684 50.334C138.996 49.8184 137.52 49.0098 136.254 47.9082C135 46.8066 134.004 45.3945 133.266 43.6719C132.539 41.9375 132.176 39.8574 132.176 37.4316C132.176 35.0059 132.545 32.9316 133.283 31.209C134.033 29.4746 135.018 28.0566 136.236 26.9551C137.467 25.8535 138.867 25.0449 140.438 24.5293C142.008 24.0137 143.637 23.7559 145.324 23.7559Z" stroke="black" stroke-width="2" mask="url(#path-1-outside-1_1_57)"/>
<path d="M173.396 30.9805V41.9316C173.396 42.7168 173.59 43.2324 173.977 43.4785C174.363 43.7129 174.855 43.8301 175.453 43.8301H175.928V50.3516H161.127V43.8301H161.812C162.434 43.8301 162.891 43.6367 163.184 43.25C163.488 42.8516 163.641 42.4238 163.641 41.9668V39.4883C163.641 38.8086 163.424 38.3105 162.99 37.9941C162.568 37.666 162.076 37.502 161.514 37.502H161.127V30.9805H173.396ZM163.359 26.6562C163.359 25.6484 163.74 24.7871 164.502 24.0723C165.275 23.3574 166.371 23 167.789 23C169.23 23 170.338 23.3574 171.111 24.0723C171.896 24.7871 172.289 25.6484 172.289 26.6562C172.289 27.6875 171.896 28.5605 171.111 29.2754C170.338 29.9785 169.23 30.3301 167.789 30.3301C166.371 30.3301 165.275 29.9785 164.502 29.2754C163.74 28.5605 163.359 27.6875 163.359 26.6562Z" stroke="black" stroke-width="2" mask="url(#path-1-outside-1_1_57)"/>
<path d="M201.592 24.459V42.3887C201.592 42.8691 201.721 43.2324 201.979 43.4785C202.248 43.7129 202.623 43.8301 203.104 43.8301H204.105V50.3516H192.293V47.1523H192.012C191.824 47.6562 191.549 48.1367 191.186 48.5938C190.822 49.0508 190.377 49.4551 189.85 49.8066C189.322 50.1465 188.695 50.416 187.969 50.6152C187.254 50.8262 186.439 50.9316 185.525 50.9316C182.654 50.9316 180.48 50.0645 179.004 48.3301C177.527 46.584 176.789 44.0293 176.789 40.666C176.789 37.3027 177.58 34.8066 179.162 33.1777C180.744 31.5488 182.918 30.7344 185.684 30.7344C186.422 30.7344 187.084 30.793 187.67 30.9102C188.256 31.0273 188.789 31.1797 189.27 31.3672C189.75 31.543 190.207 31.748 190.641 31.9824C191.074 32.2051 191.508 32.4219 191.941 32.6328V32C191.941 31.3672 191.83 30.9219 191.607 30.6641C191.396 30.3945 190.98 30.2598 190.359 30.2598H189.428V24.459H201.592ZM186.791 40.8418C186.791 41.4746 186.826 42.0723 186.896 42.6348C186.967 43.1973 187.096 43.6895 187.283 44.1113C187.482 44.5332 187.74 44.8613 188.057 45.0957C188.385 45.3301 188.812 45.4473 189.34 45.4473C189.867 45.4473 190.301 45.3359 190.641 45.1133C190.98 44.8906 191.244 44.5801 191.432 44.1816C191.631 43.7832 191.766 43.3086 191.836 42.7578C191.906 42.207 191.941 41.6211 191.941 41V37.0273C191.648 36.7461 191.256 36.5117 190.764 36.3242C190.271 36.125 189.797 36.0254 189.34 36.0254C188.812 36.0254 188.385 36.1602 188.057 36.4297C187.74 36.6875 187.482 37.0391 187.283 37.4844C187.096 37.9297 186.967 38.4453 186.896 39.0312C186.826 39.6172 186.791 40.2207 186.791 40.8418Z" stroke="black" stroke-width="2" mask="url(#path-1-outside-1_1_57)"/>
<path d="M215.109 33.4238C214.512 33.4238 213.996 33.4707 213.562 33.5645C213.141 33.6465 212.777 33.7461 212.473 33.8633C212.168 33.9805 211.916 34.1152 211.717 34.2676C211.518 34.4082 211.342 34.5371 211.189 34.6543L211.365 34.8301C211.588 34.7129 211.828 34.5957 212.086 34.4785C212.355 34.3613 212.695 34.3027 213.105 34.3027C213.797 34.3027 214.395 34.5312 214.898 34.9883C215.402 35.4336 215.654 36.1484 215.654 37.1328C215.654 38.0703 215.268 38.8262 214.494 39.4004C213.732 39.9629 212.707 40.2441 211.418 40.2441C210.188 40.2441 209.203 39.8926 208.465 39.1895C207.738 38.4746 207.375 37.4668 207.375 36.166C207.375 35.4512 207.574 34.7422 207.973 34.0391C208.371 33.3242 208.986 32.6855 209.818 32.123C210.662 31.5605 211.729 31.0977 213.018 30.7344C214.318 30.3711 215.883 30.1895 217.711 30.1895C219.891 30.1895 221.672 30.3945 223.055 30.8047C224.438 31.2148 225.51 31.7422 226.271 32.3867C227.045 33.0312 227.572 33.7637 227.854 34.584C228.146 35.4043 228.293 36.2305 228.293 37.0625V43.9355C228.293 45.002 228.328 45.7285 228.398 46.1152C228.469 46.4902 228.732 46.6777 229.189 46.6777C229.553 46.6777 229.805 46.5078 229.945 46.168C230.098 45.8164 230.174 45.2188 230.174 44.375V42.1777H232.178V44.4102C232.178 45.4648 232.09 46.4023 231.914 47.2227C231.738 48.0312 231.404 48.7285 230.912 49.3145C230.42 49.8887 229.752 50.3223 228.908 50.6152C228.064 50.9199 226.986 51.0723 225.674 51.0723C224.49 51.0723 223.506 50.9434 222.721 50.6855C221.947 50.4395 221.332 50.1289 220.875 49.7539C220.418 49.3789 220.09 48.9922 219.891 48.5938C219.703 48.1836 219.609 47.8203 219.609 47.5039H219.328C219.258 47.9844 219.053 48.4414 218.713 48.875C218.385 49.3086 217.922 49.6953 217.324 50.0352C216.738 50.3633 216.029 50.627 215.197 50.8262C214.377 51.0371 213.439 51.1426 212.385 51.1426C211.377 51.1426 210.457 51.043 209.625 50.8438C208.805 50.6562 208.102 50.3574 207.516 49.9473C206.941 49.5254 206.49 48.9863 206.162 48.3301C205.846 47.6621 205.688 46.8711 205.688 45.957C205.688 44.832 206.004 43.9473 206.637 43.3027C207.27 42.6465 208.066 42.1309 209.027 41.7559C209.988 41.3691 211.031 41.0586 212.156 40.8242C213.293 40.5781 214.342 40.2852 215.303 39.9453C216.264 39.6055 217.061 39.166 217.693 38.627C218.326 38.0879 218.643 37.3262 218.643 36.3418C218.643 35.4629 218.367 34.7598 217.816 34.2324C217.266 33.6934 216.363 33.4238 215.109 33.4238ZM218.643 41.0352C218.385 41.4102 218.062 41.7148 217.676 41.9492C217.289 42.1719 216.914 42.3945 216.551 42.6172C216.199 42.8281 215.889 43.0859 215.619 43.3906C215.361 43.6836 215.232 44.082 215.232 44.5859C215.232 44.9727 215.338 45.3242 215.549 45.6406C215.76 45.9453 216.17 46.0977 216.779 46.0977C217.33 46.0977 217.775 45.8867 218.115 45.4648C218.467 45.0312 218.643 44.4277 218.643 43.6543V41.0352Z" stroke="black" stroke-width="2" mask="url(#path-1-outside-1_1_57)"/>
<path d="M257.209 24.459V42.3887C257.209 42.8691 257.338 43.2324 257.596 43.4785C257.865 43.7129 258.24 43.8301 258.721 43.8301H259.723V50.3516H247.91V47.1523H247.629C247.441 47.6562 247.166 48.1367 246.803 48.5938C246.439 49.0508 245.994 49.4551 245.467 49.8066C244.939 50.1465 244.312 50.416 243.586 50.6152C242.871 50.8262 242.057 50.9316 241.143 50.9316C238.271 50.9316 236.098 50.0645 234.621 48.3301C233.145 46.584 232.406 44.0293 232.406 40.666C232.406 37.3027 233.197 34.8066 234.779 33.1777C236.361 31.5488 238.535 30.7344 241.301 30.7344C242.039 30.7344 242.701 30.793 243.287 30.9102C243.873 31.0273 244.406 31.1797 244.887 31.3672C245.367 31.543 245.824 31.748 246.258 31.9824C246.691 32.2051 247.125 32.4219 247.559 32.6328V32C247.559 31.3672 247.447 30.9219 247.225 30.6641C247.014 30.3945 246.598 30.2598 245.977 30.2598H245.045V24.459H257.209ZM242.408 40.8418C242.408 41.4746 242.443 42.0723 242.514 42.6348C242.584 43.1973 242.713 43.6895 242.9 44.1113C243.1 44.5332 243.357 44.8613 243.674 45.0957C244.002 45.3301 244.43 45.4473 244.957 45.4473C245.484 45.4473 245.918 45.3359 246.258 45.1133C246.598 44.8906 246.861 44.5801 247.049 44.1816C247.248 43.7832 247.383 43.3086 247.453 42.7578C247.523 42.207 247.559 41.6211 247.559 41V37.0273C247.266 36.7461 246.873 36.5117 246.381 36.3242C245.889 36.125 245.414 36.0254 244.957 36.0254C244.43 36.0254 244.002 36.1602 243.674 36.4297C243.357 36.6875 243.1 37.0391 242.9 37.4844C242.713 37.9297 242.584 38.4453 242.514 39.0312C242.443 39.6172 242.408 40.2207 242.408 40.8418Z" stroke="black" stroke-width="2" mask="url(#path-1-outside-1_1_57)"/>
<path d="M271.377 41.7559C271.424 43.502 271.752 44.709 272.361 45.377C272.982 46.0332 273.867 46.3613 275.016 46.3613C275.402 46.3613 275.777 46.3086 276.141 46.2031C276.516 46.0859 276.861 45.9043 277.178 45.6582C277.494 45.4004 277.764 45.0664 277.986 44.6562C278.221 44.2344 278.373 43.707 278.443 43.0742H284.842C284.607 44.5859 284.174 45.8516 283.541 46.8711C282.92 47.8906 282.117 48.7168 281.133 49.3496C280.148 49.9707 279 50.416 277.688 50.6855C276.387 50.9668 274.934 51.1074 273.328 51.1074C271.676 51.1074 270.123 50.8965 268.67 50.4746C267.217 50.0527 265.939 49.4141 264.838 48.5586C263.748 47.6914 262.893 46.6074 262.271 45.3066C261.65 43.9941 261.34 42.4355 261.34 40.6309C261.34 38.9082 261.633 37.3965 262.219 36.0957C262.805 34.7949 263.625 33.7109 264.68 32.8438C265.746 31.9648 267 31.3027 268.441 30.8574C269.895 30.4121 271.488 30.1895 273.223 30.1895C275.355 30.1895 277.189 30.4707 278.725 31.0332C280.26 31.5957 281.514 32.3809 282.486 33.3887C283.459 34.3965 284.174 35.6094 284.631 37.0273C285.088 38.4453 285.305 40.0215 285.281 41.7559H271.377ZM273.979 34.9355C273.158 34.9355 272.549 35.2285 272.15 35.8145C271.764 36.3887 271.506 37.3438 271.377 38.6797H276.527C276.457 37.5312 276.211 36.623 275.789 35.9551C275.367 35.2754 274.764 34.9355 273.979 34.9355Z" stroke="black" stroke-width="2" mask="url(#path-1-outside-1_1_57)"/>
<path d="M147.627 70.459V76.9805C146.736 76.9805 146.115 77.1211 145.764 77.4023C145.424 77.6719 145.254 78.123 145.254 78.7559V86.877C145.254 87.3105 145.301 87.7266 145.395 88.125C145.488 88.5234 145.646 88.8809 145.869 89.1973C146.104 89.502 146.408 89.748 146.783 89.9355C147.17 90.1113 147.656 90.1992 148.242 90.1992C149.367 90.1992 150.188 89.9062 150.703 89.3203C151.219 88.7227 151.477 87.9199 151.477 86.9121V78.8262C151.477 78.0996 151.26 77.6133 150.826 77.3672C150.393 77.1094 149.795 76.9805 149.033 76.9805V70.459H160.617V76.9805C159.832 76.9805 159.229 77.0977 158.807 77.332C158.385 77.5547 158.174 78.0293 158.174 78.7559V87.1406C158.174 88.2188 158.033 89.3438 157.752 90.5156C157.482 91.6758 156.943 92.7422 156.135 93.7148C155.338 94.6758 154.195 95.4785 152.707 96.123C151.219 96.7559 149.25 97.0723 146.801 97.0723C145.02 97.0723 143.484 96.9082 142.195 96.5801C140.918 96.2637 139.834 95.8418 138.943 95.3145C138.053 94.7871 137.344 94.1895 136.816 93.5215C136.289 92.8418 135.879 92.1445 135.586 91.4297C135.305 90.7031 135.117 90 135.023 89.3203C134.93 88.6289 134.883 87.9961 134.883 87.4219V78.9668C134.883 78.1934 134.66 77.6719 134.215 77.4023C133.77 77.1211 133.031 76.9805 132 76.9805V70.459H147.627Z" stroke="black" stroke-width="2" mask="url(#path-1-outside-1_1_57)"/>
<path d="M178.986 85.1191C178.986 84.6621 178.928 84.2988 178.811 84.0293C178.705 83.748 178.564 83.5371 178.389 83.3965C178.225 83.2441 178.037 83.1445 177.826 83.0977C177.615 83.0508 177.41 83.0273 177.211 83.0273C176.449 83.0273 175.881 83.25 175.506 83.6953C175.131 84.1406 174.943 84.7734 174.943 85.5938V88.1074C174.943 88.7285 175.049 89.1738 175.26 89.4434C175.482 89.7012 175.904 89.8301 176.525 89.8301H177.475V96.3516H162.779V89.8301H163.816C164.297 89.8301 164.66 89.6777 164.906 89.373C165.164 89.0566 165.293 88.6816 165.293 88.248V84.9082C165.293 84.3574 165.129 83.9883 164.801 83.8008C164.484 83.6016 164.121 83.502 163.711 83.502H162.779V76.9805H173.221L172.852 81.8145H173.15C173.408 80.0098 174.199 78.6211 175.523 77.6484C176.848 76.6758 178.646 76.1895 180.92 76.1895C182.525 76.1895 183.832 76.418 184.84 76.875C185.848 77.332 186.627 77.9121 187.178 78.6152C187.74 79.3066 188.121 80.0625 188.32 80.8828C188.52 81.6914 188.619 82.4531 188.619 83.168V88.1074C188.619 88.7285 188.725 89.1738 188.936 89.4434C189.158 89.7012 189.58 89.8301 190.201 89.8301H191.15V96.3516H178.986V85.1191Z" stroke="black" stroke-width="2" mask="url(#path-1-outside-1_1_57)"/>
<path d="M205.213 76.9805V87.9316C205.213 88.7168 205.406 89.2324 205.793 89.4785C206.18 89.7129 206.672 89.8301 207.27 89.8301H207.744V96.3516H192.943V89.8301H193.629C194.25 89.8301 194.707 89.6367 195 89.25C195.305 88.8516 195.457 88.4238 195.457 87.9668V85.4883C195.457 84.8086 195.24 84.3105 194.807 83.9941C194.385 83.666 193.893 83.502 193.33 83.502H192.943V76.9805H205.213ZM195.176 72.6562C195.176 71.6484 195.557 70.7871 196.318 70.0723C197.092 69.3574 198.188 69 199.605 69C201.047 69 202.154 69.3574 202.928 70.0723C203.713 70.7871 204.105 71.6484 204.105 72.6562C204.105 73.6875 203.713 74.5605 202.928 75.2754C202.154 75.9785 201.047 76.3301 199.605 76.3301C198.188 76.3301 197.092 75.9785 196.318 75.2754C195.557 74.5605 195.176 73.6875 195.176 72.6562Z" stroke="black" stroke-width="2" mask="url(#path-1-outside-1_1_57)"/>
<path d="M233.408 70.459V88.3887C233.408 88.8691 233.537 89.2324 233.795 89.4785C234.064 89.7129 234.439 89.8301 234.92 89.8301H235.922V96.3516H224.109V93.1523H223.828C223.641 93.6562 223.365 94.1367 223.002 94.5938C222.639 95.0508 222.193 95.4551 221.666 95.8066C221.139 96.1465 220.512 96.416 219.785 96.6152C219.07 96.8262 218.256 96.9316 217.342 96.9316C214.471 96.9316 212.297 96.0645 210.82 94.3301C209.344 92.584 208.605 90.0293 208.605 86.666C208.605 83.3027 209.396 80.8066 210.979 79.1777C212.561 77.5488 214.734 76.7344 217.5 76.7344C218.238 76.7344 218.9 76.793 219.486 76.9102C220.072 77.0273 220.605 77.1797 221.086 77.3672C221.566 77.543 222.023 77.748 222.457 77.9824C222.891 78.2051 223.324 78.4219 223.758 78.6328V78C223.758 77.3672 223.646 76.9219 223.424 76.6641C223.213 76.3945 222.797 76.2598 222.176 76.2598H221.244V70.459H233.408ZM218.607 86.8418C218.607 87.4746 218.643 88.0723 218.713 88.6348C218.783 89.1973 218.912 89.6895 219.1 90.1113C219.299 90.5332 219.557 90.8613 219.873 91.0957C220.201 91.3301 220.629 91.4473 221.156 91.4473C221.684 91.4473 222.117 91.3359 222.457 91.1133C222.797 90.8906 223.061 90.5801 223.248 90.1816C223.447 89.7832 223.582 89.3086 223.652 88.7578C223.723 88.207 223.758 87.6211 223.758 87V83.0273C223.465 82.7461 223.072 82.5117 222.58 82.3242C222.088 82.125 221.613 82.0254 221.156 82.0254C220.629 82.0254 220.201 82.1602 219.873 82.4297C219.557 82.6875 219.299 83.0391 219.1 83.4844C218.912 83.9297 218.783 84.4453 218.713 85.0312C218.643 85.6172 218.607 86.2207 218.607 86.8418Z" stroke="black" stroke-width="2" mask="url(#path-1-outside-1_1_57)"/>
<path d="M246.926 79.4238C246.328 79.4238 245.812 79.4707 245.379 79.5645C244.957 79.6465 244.594 79.7461 244.289 79.8633C243.984 79.9805 243.732 80.1152 243.533 80.2676C243.334 80.4082 243.158 80.5371 243.006 80.6543L243.182 80.8301C243.404 80.7129 243.645 80.5957 243.902 80.4785C244.172 80.3613 244.512 80.3027 244.922 80.3027C245.613 80.3027 246.211 80.5312 246.715 80.9883C247.219 81.4336 247.471 82.1484 247.471 83.1328C247.471 84.0703 247.084 84.8262 246.311 85.4004C245.549 85.9629 244.523 86.2441 243.234 86.2441C242.004 86.2441 241.02 85.8926 240.281 85.1895C239.555 84.4746 239.191 83.4668 239.191 82.166C239.191 81.4512 239.391 80.7422 239.789 80.0391C240.188 79.3242 240.803 78.6855 241.635 78.123C242.479 77.5605 243.545 77.0977 244.834 76.7344C246.135 76.3711 247.699 76.1895 249.527 76.1895C251.707 76.1895 253.488 76.3945 254.871 76.8047C256.254 77.2148 257.326 77.7422 258.088 78.3867C258.861 79.0312 259.389 79.7637 259.67 80.584C259.963 81.4043 260.109 82.2305 260.109 83.0625V89.9355C260.109 91.002 260.145 91.7285 260.215 92.1152C260.285 92.4902 260.549 92.6777 261.006 92.6777C261.369 92.6777 261.621 92.5078 261.762 92.168C261.914 91.8164 261.99 91.2188 261.99 90.375V88.1777H263.994V90.4102C263.994 91.4648 263.906 92.4023 263.73 93.2227C263.555 94.0312 263.221 94.7285 262.729 95.3145C262.236 95.8887 261.568 96.3223 260.725 96.6152C259.881 96.9199 258.803 97.0723 257.49 97.0723C256.307 97.0723 255.322 96.9434 254.537 96.6855C253.764 96.4395 253.148 96.1289 252.691 95.7539C252.234 95.3789 251.906 94.9922 251.707 94.5938C251.52 94.1836 251.426 93.8203 251.426 93.5039H251.145C251.074 93.9844 250.869 94.4414 250.529 94.875C250.201 95.3086 249.738 95.6953 249.141 96.0352C248.555 96.3633 247.846 96.627 247.014 96.8262C246.193 97.0371 245.256 97.1426 244.201 97.1426C243.193 97.1426 242.273 97.043 241.441 96.8438C240.621 96.6562 239.918 96.3574 239.332 95.9473C238.758 95.5254 238.307 94.9863 237.979 94.3301C237.662 93.6621 237.504 92.8711 237.504 91.957C237.504 90.832 237.82 89.9473 238.453 89.3027C239.086 88.6465 239.883 88.1309 240.844 87.7559C241.805 87.3691 242.848 87.0586 243.973 86.8242C245.109 86.5781 246.158 86.2852 247.119 85.9453C248.08 85.6055 248.877 85.166 249.51 84.627C250.143 84.0879 250.459 83.3262 250.459 82.3418C250.459 81.4629 250.184 80.7598 249.633 80.2324C249.082 79.6934 248.18 79.4238 246.926 79.4238ZM250.459 87.0352C250.201 87.4102 249.879 87.7148 249.492 87.9492C249.105 88.1719 248.73 88.3945 248.367 88.6172C248.016 88.8281 247.705 89.0859 247.436 89.3906C247.178 89.6836 247.049 90.082 247.049 90.5859C247.049 90.9727 247.154 91.3242 247.365 91.6406C247.576 91.9453 247.986 92.0977 248.596 92.0977C249.146 92.0977 249.592 91.8867 249.932 91.4648C250.283 91.0312 250.459 90.4277 250.459 89.6543V87.0352Z" stroke="black" stroke-width="2" mask="url(#path-1-outside-1_1_57)"/>
</svg>
