<svg width="293" height="119" viewBox="0 0 293 119" fill="none" xmlns="http://www.w3.org/2000/svg">
<path d="M74.8633 117.881C72.3778 117.881 70.2652 117.022 68.5253 115.303C66.7855 113.583 65.9155 111.496 65.9155 109.04V79.5698C65.9155 77.114 66.7855 75.0265 68.5253 73.3074C70.2652 71.5883 72.3778 70.7287 74.8633 70.7287H83.8111L89.7763 64.8347H101.707L107.672 70.7287H116.62C119.105 70.7287 121.218 71.5883 122.958 73.3074C124.698 75.0265 125.568 77.114 125.568 79.5698V109.04C125.568 111.496 124.698 113.583 122.958 115.303C121.218 117.022 119.105 117.881 116.62 117.881H74.8633ZM95.7415 106.093C99.0224 106.093 101.831 104.939 104.167 102.63C106.504 100.322 107.672 97.5467 107.672 94.305C107.672 91.0633 106.504 88.2881 104.167 85.9796C101.831 83.6711 99.0224 82.5169 95.7415 82.5169C92.4607 82.5169 89.6521 83.6711 87.3157 85.9796C84.9793 88.2881 83.8111 91.0633 83.8111 94.305C83.8111 97.5467 84.9793 100.322 87.3157 102.63C89.6521 104.939 92.4607 106.093 95.7415 106.093ZM43.546 117.881L41.1599 99.0202C39.8675 98.5291 38.6496 97.9397 37.5062 97.252C36.3629 96.5644 35.2444 95.8276 34.1508 95.0418L16.4043 102.409L0 74.4125L15.3604 62.9191C15.261 62.2315 15.2113 61.5684 15.2113 60.9299V56.9514C15.2113 56.3129 15.261 55.6498 15.3604 54.9621L0 43.4687L16.4043 15.4719L34.1508 22.8395C35.2444 22.0536 36.3878 21.3169 37.5808 20.6292C38.7738 19.9416 39.9669 19.3522 41.1599 18.861L43.546 0H76.3546L78.7407 18.861C80.0332 19.3522 81.2511 19.9416 82.3944 20.6292C83.5377 21.3169 84.6562 22.0536 85.7498 22.8395L103.496 15.4719L119.901 43.4687L107.225 53.0466H92.1624C92.063 52.5554 91.9636 52.0397 91.8642 51.4994C91.7648 50.9591 91.6156 50.4433 91.4168 49.9522L104.242 40.3743L98.4259 30.3544L83.662 36.5432C81.4748 34.2838 79.0638 32.3928 76.4292 30.8702C73.7946 29.3475 70.9362 28.1933 67.8542 27.4074L65.9155 11.7881H54.1342L52.0464 27.4074C48.9644 28.1933 46.1061 29.3475 43.4714 30.8702C40.8368 32.3928 38.4259 34.2347 36.2386 36.3958L21.4747 30.3544L15.6587 40.3743L28.4839 49.8048C27.9868 51.2783 27.6388 52.7519 27.4399 54.2254C27.2411 55.6989 27.1417 57.2706 27.1417 58.9406C27.1417 60.5124 27.2411 62.035 27.4399 63.5085C27.6388 64.982 27.9868 66.4556 28.4839 67.9291L15.6587 77.5069L21.4747 87.5268L36.2386 81.3381C38.6247 83.7939 41.3091 85.8568 44.2917 87.5268C47.2743 89.1968 50.5054 90.2774 53.9851 90.7686V117.881H43.546Z" fill="#5BC561"/>
<path d="M76.3234 81.0743L61.4782 66.4061L67.1722 60.7799L82.0174 75.4481L76.3234 81.0743ZM38.9053 81.0743L33.2112 75.4481L51.9203 56.9622L47.3108 52.4077L45.4128 54.2831L41.9557 50.8672V56.3594L40.0576 58.2348L31.8555 50.1304L33.7535 48.2551H39.312L35.9227 44.9062L45.5483 35.3953C46.4522 34.5023 47.4238 33.8548 48.4632 33.4529C49.5025 33.0511 50.5645 32.8501 51.6491 32.8501C52.7337 32.8501 53.7957 33.0511 54.8351 33.4529C55.8745 33.8548 56.8461 34.5023 57.7499 35.3953L51.5135 41.5573L54.9029 44.9062L53.0048 46.7815L57.6143 51.336L63.7151 45.308C63.5343 44.8169 63.3875 44.3034 63.2745 43.7675C63.1615 43.2317 63.105 42.6959 63.105 42.1601C63.105 39.5256 64.0201 37.3042 65.8504 35.4958C67.6806 33.6873 69.9289 32.7831 72.5951 32.7831C73.273 32.7831 73.917 32.8501 74.527 32.9841C75.1371 33.118 75.7585 33.319 76.3912 33.5869L69.6803 40.2177L74.5609 45.0401L81.2718 38.4093C81.5881 39.0344 81.8028 39.6484 81.9158 40.2512C82.0287 40.854 82.0852 41.4903 82.0852 42.1601C82.0852 44.7945 81.1701 47.016 79.3399 48.8244C77.5097 50.6328 75.2614 51.537 72.5951 51.537C72.0528 51.537 71.5105 51.4923 70.9682 51.403C70.426 51.3137 69.9063 51.1574 69.4092 50.9342L38.9053 81.0743Z" fill="#5BC561"/>
<path d="M74.6008 118.122C72.0964 118.122 69.9677 117.253 68.2147 115.516C66.4617 113.778 65.5851 111.668 65.5851 109.186V79.4009C65.5851 76.9187 66.4617 74.8089 68.2147 73.0715C69.9677 71.334 72.0964 70.4653 74.6008 70.4653H83.6164L89.6268 64.5082H101.648L107.658 70.4653H116.674C119.178 70.4653 121.307 71.334 123.06 73.0715C124.813 74.8089 125.689 76.9187 125.689 79.4009V109.186C125.689 111.668 124.813 113.778 123.06 115.516C121.307 117.253 119.178 118.122 116.674 118.122H74.6008ZM95.6373 106.208C98.943 106.208 101.773 105.041 104.127 102.708C106.481 100.375 107.658 97.5699 107.658 94.2935C107.658 91.0172 106.481 88.2124 104.127 85.8792C101.773 83.546 98.943 82.3794 95.6373 82.3794C92.3315 82.3794 89.5016 83.546 87.1475 85.8792C84.7934 88.2124 83.6164 91.0172 83.6164 94.2935C83.6164 97.5699 84.7934 100.375 87.1475 102.708C89.5016 105.041 92.3315 106.208 95.6373 106.208Z" fill="#5BC561"/>
<path d="M143.324 22.7559C144.109 22.7559 144.842 22.8203 145.521 22.9492C146.213 23.0781 146.84 23.248 147.402 23.459C147.965 23.6582 148.451 23.875 148.861 24.1094C149.271 24.332 149.605 24.5371 149.863 24.7246V23.459H155.664V33.0391H149.512C149.512 32.2539 149.412 31.5977 149.213 31.0703C149.025 30.543 148.768 30.1152 148.439 29.7871C148.123 29.459 147.748 29.2246 147.314 29.084C146.881 28.9434 146.412 28.873 145.908 28.873C145.217 28.873 144.625 29.0078 144.133 29.2773C143.641 29.5352 143.236 29.957 142.92 30.543C142.615 31.1289 142.381 31.9082 142.217 32.8809C142.064 33.8535 141.988 35.0371 141.988 36.4316C141.988 37.8496 142.07 39.0391 142.234 40C142.41 40.9492 142.668 41.7227 143.008 42.3203C143.359 42.9062 143.805 43.334 144.344 43.6035C144.883 43.8613 145.527 43.9902 146.277 43.9902C146.781 43.9902 147.268 43.8965 147.736 43.709C148.205 43.5098 148.615 43.2109 148.967 42.8125C149.33 42.4141 149.611 41.916 149.811 41.3184C150.021 40.7207 150.127 40 150.127 39.1562H156.244C156.244 40.6445 156.01 42.0508 155.541 43.375C155.072 44.6992 154.34 45.8594 153.344 46.8555C152.348 47.8516 151.082 48.6426 149.547 49.2285C148.012 49.8145 146.189 50.1074 144.08 50.1074C142.182 50.1074 140.383 49.8496 138.684 49.334C136.996 48.8184 135.52 48.0098 134.254 46.9082C133 45.8066 132.004 44.3945 131.266 42.6719C130.539 40.9375 130.176 38.8574 130.176 36.4316C130.176 34.0059 130.545 31.9316 131.283 30.209C132.033 28.4746 133.018 27.0566 134.236 25.9551C135.467 24.8535 136.867 24.0449 138.438 23.5293C140.008 23.0137 141.637 22.7559 143.324 22.7559Z" fill="#D9D9D9"/>
<path d="M171.396 29.9805V40.9316C171.396 41.7168 171.59 42.2324 171.977 42.4785C172.363 42.7129 172.855 42.8301 173.453 42.8301H173.928V49.3516H159.127V42.8301H159.812C160.434 42.8301 160.891 42.6367 161.184 42.25C161.488 41.8516 161.641 41.4238 161.641 40.9668V38.4883C161.641 37.8086 161.424 37.3105 160.99 36.9941C160.568 36.666 160.076 36.502 159.514 36.502H159.127V29.9805H171.396ZM161.359 25.6562C161.359 24.6484 161.74 23.7871 162.502 23.0723C163.275 22.3574 164.371 22 165.789 22C167.23 22 168.338 22.3574 169.111 23.0723C169.896 23.7871 170.289 24.6484 170.289 25.6562C170.289 26.6875 169.896 27.5605 169.111 28.2754C168.338 28.9785 167.23 29.3301 165.789 29.3301C164.371 29.3301 163.275 28.9785 162.502 28.2754C161.74 27.5605 161.359 26.6875 161.359 25.6562Z" fill="#D9D9D9"/>
<path d="M199.592 23.459V41.3887C199.592 41.8691 199.721 42.2324 199.979 42.4785C200.248 42.7129 200.623 42.8301 201.104 42.8301H202.105V49.3516H190.293V46.1523H190.012C189.824 46.6562 189.549 47.1367 189.186 47.5938C188.822 48.0508 188.377 48.4551 187.85 48.8066C187.322 49.1465 186.695 49.416 185.969 49.6152C185.254 49.8262 184.439 49.9316 183.525 49.9316C180.654 49.9316 178.48 49.0645 177.004 47.3301C175.527 45.584 174.789 43.0293 174.789 39.666C174.789 36.3027 175.58 33.8066 177.162 32.1777C178.744 30.5488 180.918 29.7344 183.684 29.7344C184.422 29.7344 185.084 29.793 185.67 29.9102C186.256 30.0273 186.789 30.1797 187.27 30.3672C187.75 30.543 188.207 30.748 188.641 30.9824C189.074 31.2051 189.508 31.4219 189.941 31.6328V31C189.941 30.3672 189.83 29.9219 189.607 29.6641C189.396 29.3945 188.98 29.2598 188.359 29.2598H187.428V23.459H199.592ZM184.791 39.8418C184.791 40.4746 184.826 41.0723 184.896 41.6348C184.967 42.1973 185.096 42.6895 185.283 43.1113C185.482 43.5332 185.74 43.8613 186.057 44.0957C186.385 44.3301 186.812 44.4473 187.34 44.4473C187.867 44.4473 188.301 44.3359 188.641 44.1133C188.98 43.8906 189.244 43.5801 189.432 43.1816C189.631 42.7832 189.766 42.3086 189.836 41.7578C189.906 41.207 189.941 40.6211 189.941 40V36.0273C189.648 35.7461 189.256 35.5117 188.764 35.3242C188.271 35.125 187.797 35.0254 187.34 35.0254C186.812 35.0254 186.385 35.1602 186.057 35.4297C185.74 35.6875 185.482 36.0391 185.283 36.4844C185.096 36.9297 184.967 37.4453 184.896 38.0312C184.826 38.6172 184.791 39.2207 184.791 39.8418Z" fill="#D9D9D9"/>
<path d="M213.109 32.4238C212.512 32.4238 211.996 32.4707 211.562 32.5645C211.141 32.6465 210.777 32.7461 210.473 32.8633C210.168 32.9805 209.916 33.1152 209.717 33.2676C209.518 33.4082 209.342 33.5371 209.189 33.6543L209.365 33.8301C209.588 33.7129 209.828 33.5957 210.086 33.4785C210.355 33.3613 210.695 33.3027 211.105 33.3027C211.797 33.3027 212.395 33.5312 212.898 33.9883C213.402 34.4336 213.654 35.1484 213.654 36.1328C213.654 37.0703 213.268 37.8262 212.494 38.4004C211.732 38.9629 210.707 39.2441 209.418 39.2441C208.188 39.2441 207.203 38.8926 206.465 38.1895C205.738 37.4746 205.375 36.4668 205.375 35.166C205.375 34.4512 205.574 33.7422 205.973 33.0391C206.371 32.3242 206.986 31.6855 207.818 31.123C208.662 30.5605 209.729 30.0977 211.018 29.7344C212.318 29.3711 213.883 29.1895 215.711 29.1895C217.891 29.1895 219.672 29.3945 221.055 29.8047C222.438 30.2148 223.51 30.7422 224.271 31.3867C225.045 32.0312 225.572 32.7637 225.854 33.584C226.146 34.4043 226.293 35.2305 226.293 36.0625V42.9355C226.293 44.002 226.328 44.7285 226.398 45.1152C226.469 45.4902 226.732 45.6777 227.189 45.6777C227.553 45.6777 227.805 45.5078 227.945 45.168C228.098 44.8164 228.174 44.2188 228.174 43.375V41.1777H230.178V43.4102C230.178 44.4648 230.09 45.4023 229.914 46.2227C229.738 47.0312 229.404 47.7285 228.912 48.3145C228.42 48.8887 227.752 49.3223 226.908 49.6152C226.064 49.9199 224.986 50.0723 223.674 50.0723C222.49 50.0723 221.506 49.9434 220.721 49.6855C219.947 49.4395 219.332 49.1289 218.875 48.7539C218.418 48.3789 218.09 47.9922 217.891 47.5938C217.703 47.1836 217.609 46.8203 217.609 46.5039H217.328C217.258 46.9844 217.053 47.4414 216.713 47.875C216.385 48.3086 215.922 48.6953 215.324 49.0352C214.738 49.3633 214.029 49.627 213.197 49.8262C212.377 50.0371 211.439 50.1426 210.385 50.1426C209.377 50.1426 208.457 50.043 207.625 49.8438C206.805 49.6562 206.102 49.3574 205.516 48.9473C204.941 48.5254 204.49 47.9863 204.162 47.3301C203.846 46.6621 203.688 45.8711 203.688 44.957C203.688 43.832 204.004 42.9473 204.637 42.3027C205.27 41.6465 206.066 41.1309 207.027 40.7559C207.988 40.3691 209.031 40.0586 210.156 39.8242C211.293 39.5781 212.342 39.2852 213.303 38.9453C214.264 38.6055 215.061 38.166 215.693 37.627C216.326 37.0879 216.643 36.3262 216.643 35.3418C216.643 34.4629 216.367 33.7598 215.816 33.2324C215.266 32.6934 214.363 32.4238 213.109 32.4238ZM216.643 40.0352C216.385 40.4102 216.062 40.7148 215.676 40.9492C215.289 41.1719 214.914 41.3945 214.551 41.6172C214.199 41.8281 213.889 42.0859 213.619 42.3906C213.361 42.6836 213.232 43.082 213.232 43.5859C213.232 43.9727 213.338 44.3242 213.549 44.6406C213.76 44.9453 214.17 45.0977 214.779 45.0977C215.33 45.0977 215.775 44.8867 216.115 44.4648C216.467 44.0312 216.643 43.4277 216.643 42.6543V40.0352Z" fill="#D9D9D9"/>
<path d="M255.209 23.459V41.3887C255.209 41.8691 255.338 42.2324 255.596 42.4785C255.865 42.7129 256.24 42.8301 256.721 42.8301H257.723V49.3516H245.91V46.1523H245.629C245.441 46.6562 245.166 47.1367 244.803 47.5938C244.439 48.0508 243.994 48.4551 243.467 48.8066C242.939 49.1465 242.312 49.416 241.586 49.6152C240.871 49.8262 240.057 49.9316 239.143 49.9316C236.271 49.9316 234.098 49.0645 232.621 47.3301C231.145 45.584 230.406 43.0293 230.406 39.666C230.406 36.3027 231.197 33.8066 232.779 32.1777C234.361 30.5488 236.535 29.7344 239.301 29.7344C240.039 29.7344 240.701 29.793 241.287 29.9102C241.873 30.0273 242.406 30.1797 242.887 30.3672C243.367 30.543 243.824 30.748 244.258 30.9824C244.691 31.2051 245.125 31.4219 245.559 31.6328V31C245.559 30.3672 245.447 29.9219 245.225 29.6641C245.014 29.3945 244.598 29.2598 243.977 29.2598H243.045V23.459H255.209ZM240.408 39.8418C240.408 40.4746 240.443 41.0723 240.514 41.6348C240.584 42.1973 240.713 42.6895 240.9 43.1113C241.1 43.5332 241.357 43.8613 241.674 44.0957C242.002 44.3301 242.43 44.4473 242.957 44.4473C243.484 44.4473 243.918 44.3359 244.258 44.1133C244.598 43.8906 244.861 43.5801 245.049 43.1816C245.248 42.7832 245.383 42.3086 245.453 41.7578C245.523 41.207 245.559 40.6211 245.559 40V36.0273C245.266 35.7461 244.873 35.5117 244.381 35.3242C243.889 35.125 243.414 35.0254 242.957 35.0254C242.43 35.0254 242.002 35.1602 241.674 35.4297C241.357 35.6875 241.1 36.0391 240.9 36.4844C240.713 36.9297 240.584 37.4453 240.514 38.0312C240.443 38.6172 240.408 39.2207 240.408 39.8418Z" fill="#D9D9D9"/>
<path d="M269.377 40.7559C269.424 42.502 269.752 43.709 270.361 44.377C270.982 45.0332 271.867 45.3613 273.016 45.3613C273.402 45.3613 273.777 45.3086 274.141 45.2031C274.516 45.0859 274.861 44.9043 275.178 44.6582C275.494 44.4004 275.764 44.0664 275.986 43.6562C276.221 43.2344 276.373 42.707 276.443 42.0742H282.842C282.607 43.5859 282.174 44.8516 281.541 45.8711C280.92 46.8906 280.117 47.7168 279.133 48.3496C278.148 48.9707 277 49.416 275.688 49.6855C274.387 49.9668 272.934 50.1074 271.328 50.1074C269.676 50.1074 268.123 49.8965 266.67 49.4746C265.217 49.0527 263.939 48.4141 262.838 47.5586C261.748 46.6914 260.893 45.6074 260.271 44.3066C259.65 42.9941 259.34 41.4355 259.34 39.6309C259.34 37.9082 259.633 36.3965 260.219 35.0957C260.805 33.7949 261.625 32.7109 262.68 31.8438C263.746 30.9648 265 30.3027 266.441 29.8574C267.895 29.4121 269.488 29.1895 271.223 29.1895C273.355 29.1895 275.189 29.4707 276.725 30.0332C278.26 30.5957 279.514 31.3809 280.486 32.3887C281.459 33.3965 282.174 34.6094 282.631 36.0273C283.088 37.4453 283.305 39.0215 283.281 40.7559H269.377ZM271.979 33.9355C271.158 33.9355 270.549 34.2285 270.15 34.8145C269.764 35.3887 269.506 36.3438 269.377 37.6797H274.527C274.457 36.5312 274.211 35.623 273.789 34.9551C273.367 34.2754 272.764 33.9355 271.979 33.9355Z" fill="#D9D9D9"/>
<path d="M145.627 69.459V75.9805C144.736 75.9805 144.115 76.1211 143.764 76.4023C143.424 76.6719 143.254 77.123 143.254 77.7559V85.877C143.254 86.3105 143.301 86.7266 143.395 87.125C143.488 87.5234 143.646 87.8809 143.869 88.1973C144.104 88.502 144.408 88.748 144.783 88.9355C145.17 89.1113 145.656 89.1992 146.242 89.1992C147.367 89.1992 148.188 88.9062 148.703 88.3203C149.219 87.7227 149.477 86.9199 149.477 85.9121V77.8262C149.477 77.0996 149.26 76.6133 148.826 76.3672C148.393 76.1094 147.795 75.9805 147.033 75.9805V69.459H158.617V75.9805C157.832 75.9805 157.229 76.0977 156.807 76.332C156.385 76.5547 156.174 77.0293 156.174 77.7559V86.1406C156.174 87.2188 156.033 88.3438 155.752 89.5156C155.482 90.6758 154.943 91.7422 154.135 92.7148C153.338 93.6758 152.195 94.4785 150.707 95.123C149.219 95.7559 147.25 96.0723 144.801 96.0723C143.02 96.0723 141.484 95.9082 140.195 95.5801C138.918 95.2637 137.834 94.8418 136.943 94.3145C136.053 93.7871 135.344 93.1895 134.816 92.5215C134.289 91.8418 133.879 91.1445 133.586 90.4297C133.305 89.7031 133.117 89 133.023 88.3203C132.93 87.6289 132.883 86.9961 132.883 86.4219V77.9668C132.883 77.1934 132.66 76.6719 132.215 76.4023C131.77 76.1211 131.031 75.9805 130 75.9805V69.459H145.627Z" fill="#D9D9D9"/>
<path d="M176.986 84.1191C176.986 83.6621 176.928 83.2988 176.811 83.0293C176.705 82.748 176.564 82.5371 176.389 82.3965C176.225 82.2441 176.037 82.1445 175.826 82.0977C175.615 82.0508 175.41 82.0273 175.211 82.0273C174.449 82.0273 173.881 82.25 173.506 82.6953C173.131 83.1406 172.943 83.7734 172.943 84.5938V87.1074C172.943 87.7285 173.049 88.1738 173.26 88.4434C173.482 88.7012 173.904 88.8301 174.525 88.8301H175.475V95.3516H160.779V88.8301H161.816C162.297 88.8301 162.66 88.6777 162.906 88.373C163.164 88.0566 163.293 87.6816 163.293 87.248V83.9082C163.293 83.3574 163.129 82.9883 162.801 82.8008C162.484 82.6016 162.121 82.502 161.711 82.502H160.779V75.9805H171.221L170.852 80.8145H171.15C171.408 79.0098 172.199 77.6211 173.523 76.6484C174.848 75.6758 176.646 75.1895 178.92 75.1895C180.525 75.1895 181.832 75.418 182.84 75.875C183.848 76.332 184.627 76.9121 185.178 77.6152C185.74 78.3066 186.121 79.0625 186.32 79.8828C186.52 80.6914 186.619 81.4531 186.619 82.168V87.1074C186.619 87.7285 186.725 88.1738 186.936 88.4434C187.158 88.7012 187.58 88.8301 188.201 88.8301H189.15V95.3516H176.986V84.1191Z" fill="#D9D9D9"/>
<path d="M203.213 75.9805V86.9316C203.213 87.7168 203.406 88.2324 203.793 88.4785C204.18 88.7129 204.672 88.8301 205.27 88.8301H205.744V95.3516H190.943V88.8301H191.629C192.25 88.8301 192.707 88.6367 193 88.25C193.305 87.8516 193.457 87.4238 193.457 86.9668V84.4883C193.457 83.8086 193.24 83.3105 192.807 82.9941C192.385 82.666 191.893 82.502 191.33 82.502H190.943V75.9805H203.213ZM193.176 71.6562C193.176 70.6484 193.557 69.7871 194.318 69.0723C195.092 68.3574 196.188 68 197.605 68C199.047 68 200.154 68.3574 200.928 69.0723C201.713 69.7871 202.105 70.6484 202.105 71.6562C202.105 72.6875 201.713 73.5605 200.928 74.2754C200.154 74.9785 199.047 75.3301 197.605 75.3301C196.188 75.3301 195.092 74.9785 194.318 74.2754C193.557 73.5605 193.176 72.6875 193.176 71.6562Z" fill="#D9D9D9"/>
<path d="M231.408 69.459V87.3887C231.408 87.8691 231.537 88.2324 231.795 88.4785C232.064 88.7129 232.439 88.8301 232.92 88.8301H233.922V95.3516H222.109V92.1523H221.828C221.641 92.6562 221.365 93.1367 221.002 93.5938C220.639 94.0508 220.193 94.4551 219.666 94.8066C219.139 95.1465 218.512 95.416 217.785 95.6152C217.07 95.8262 216.256 95.9316 215.342 95.9316C212.471 95.9316 210.297 95.0645 208.82 93.3301C207.344 91.584 206.605 89.0293 206.605 85.666C206.605 82.3027 207.396 79.8066 208.979 78.1777C210.561 76.5488 212.734 75.7344 215.5 75.7344C216.238 75.7344 216.9 75.793 217.486 75.9102C218.072 76.0273 218.605 76.1797 219.086 76.3672C219.566 76.543 220.023 76.748 220.457 76.9824C220.891 77.2051 221.324 77.4219 221.758 77.6328V77C221.758 76.3672 221.646 75.9219 221.424 75.6641C221.213 75.3945 220.797 75.2598 220.176 75.2598H219.244V69.459H231.408ZM216.607 85.8418C216.607 86.4746 216.643 87.0723 216.713 87.6348C216.783 88.1973 216.912 88.6895 217.1 89.1113C217.299 89.5332 217.557 89.8613 217.873 90.0957C218.201 90.3301 218.629 90.4473 219.156 90.4473C219.684 90.4473 220.117 90.3359 220.457 90.1133C220.797 89.8906 221.061 89.5801 221.248 89.1816C221.447 88.7832 221.582 88.3086 221.652 87.7578C221.723 87.207 221.758 86.6211 221.758 86V82.0273C221.465 81.7461 221.072 81.5117 220.58 81.3242C220.088 81.125 219.613 81.0254 219.156 81.0254C218.629 81.0254 218.201 81.1602 217.873 81.4297C217.557 81.6875 217.299 82.0391 217.1 82.4844C216.912 82.9297 216.783 83.4453 216.713 84.0312C216.643 84.6172 216.607 85.2207 216.607 85.8418Z" fill="#D9D9D9"/>
<path d="M244.926 78.4238C244.328 78.4238 243.812 78.4707 243.379 78.5645C242.957 78.6465 242.594 78.7461 242.289 78.8633C241.984 78.9805 241.732 79.1152 241.533 79.2676C241.334 79.4082 241.158 79.5371 241.006 79.6543L241.182 79.8301C241.404 79.7129 241.645 79.5957 241.902 79.4785C242.172 79.3613 242.512 79.3027 242.922 79.3027C243.613 79.3027 244.211 79.5312 244.715 79.9883C245.219 80.4336 245.471 81.1484 245.471 82.1328C245.471 83.0703 245.084 83.8262 244.311 84.4004C243.549 84.9629 242.523 85.2441 241.234 85.2441C240.004 85.2441 239.02 84.8926 238.281 84.1895C237.555 83.4746 237.191 82.4668 237.191 81.166C237.191 80.4512 237.391 79.7422 237.789 79.0391C238.188 78.3242 238.803 77.6855 239.635 77.123C240.479 76.5605 241.545 76.0977 242.834 75.7344C244.135 75.3711 245.699 75.1895 247.527 75.1895C249.707 75.1895 251.488 75.3945 252.871 75.8047C254.254 76.2148 255.326 76.7422 256.088 77.3867C256.861 78.0312 257.389 78.7637 257.67 79.584C257.963 80.4043 258.109 81.2305 258.109 82.0625V88.9355C258.109 90.002 258.145 90.7285 258.215 91.1152C258.285 91.4902 258.549 91.6777 259.006 91.6777C259.369 91.6777 259.621 91.5078 259.762 91.168C259.914 90.8164 259.99 90.2188 259.99 89.375V87.1777H261.994V89.4102C261.994 90.4648 261.906 91.4023 261.73 92.2227C261.555 93.0312 261.221 93.7285 260.729 94.3145C260.236 94.8887 259.568 95.3223 258.725 95.6152C257.881 95.9199 256.803 96.0723 255.49 96.0723C254.307 96.0723 253.322 95.9434 252.537 95.6855C251.764 95.4395 251.148 95.1289 250.691 94.7539C250.234 94.3789 249.906 93.9922 249.707 93.5938C249.52 93.1836 249.426 92.8203 249.426 92.5039H249.145C249.074 92.9844 248.869 93.4414 248.529 93.875C248.201 94.3086 247.738 94.6953 247.141 95.0352C246.555 95.3633 245.846 95.627 245.014 95.8262C244.193 96.0371 243.256 96.1426 242.201 96.1426C241.193 96.1426 240.273 96.043 239.441 95.8438C238.621 95.6562 237.918 95.3574 237.332 94.9473C236.758 94.5254 236.307 93.9863 235.979 93.3301C235.662 92.6621 235.504 91.8711 235.504 90.957C235.504 89.832 235.82 88.9473 236.453 88.3027C237.086 87.6465 237.883 87.1309 238.844 86.7559C239.805 86.3691 240.848 86.0586 241.973 85.8242C243.109 85.5781 244.158 85.2852 245.119 84.9453C246.08 84.6055 246.877 84.166 247.51 83.627C248.143 83.0879 248.459 82.3262 248.459 81.3418C248.459 80.4629 248.184 79.7598 247.633 79.2324C247.082 78.6934 246.18 78.4238 244.926 78.4238ZM248.459 86.0352C248.201 86.4102 247.879 86.7148 247.492 86.9492C247.105 87.1719 246.73 87.3945 246.367 87.6172C246.016 87.8281 245.705 88.0859 245.436 88.3906C245.178 88.6836 245.049 89.082 245.049 89.5859C245.049 89.9727 245.154 90.3242 245.365 90.6406C245.576 90.9453 245.986 91.0977 246.596 91.0977C247.146 91.0977 247.592 90.8867 247.932 90.4648C248.283 90.0312 248.459 89.4277 248.459 88.6543V86.0352Z" fill="#D9D9D9"/>
</svg>
